<?xml version="1.0" encoding="UTF-8" standalone="no"?>
<svg
   xmlns:dc="http://purl.org/dc/elements/1.1/"
   xmlns:cc="http://creativecommons.org/ns#"
   xmlns:rdf="http://www.w3.org/1999/02/22-rdf-syntax-ns#"
   xmlns:svg="http://www.w3.org/2000/svg"
   xmlns="http://www.w3.org/2000/svg"
   xmlns:sodipodi="http://sodipodi.sourceforge.net/DTD/sodipodi-0.dtd"
   xmlns:inkscape="http://www.inkscape.org/namespaces/inkscape"
   width="210mm"
   height="297mm"
   viewBox="0 0 210 297"
   version="1.1"
   id="svg8"
   inkscape:version="1.0.2 (e86c870879, 2021-01-15)"
   sodipodi:docname="di.svg">
  <defs
     id="defs2" />
  <sodipodi:namedview
     id="base"
     pagecolor="#ffffff"
     bordercolor="#666666"
     borderopacity="1.0"
     inkscape:pageopacity="0.0"
     inkscape:pageshadow="2"
     inkscape:zoom="1.3375969"
     inkscape:cx="284.82834"
     inkscape:cy="355.77559"
     inkscape:document-units="mm"
     inkscape:current-layer="layer3"
     inkscape:document-rotation="0"
     showgrid="false"
     showguides="true"
     inkscape:guide-bbox="true"
     inkscape:snap-global="false"
     inkscape:window-width="1366"
     inkscape:window-height="705"
     inkscape:window-x="-8"
     inkscape:window-y="-8"
     inkscape:window-maximized="1">
    <sodipodi:guide
       position="109.58051,215.75007"
       orientation="1,0"
       id="guide14" />
    <sodipodi:guide
       position="52.919365,172.45241"
       orientation="0,-1"
       id="guide16" />
    <sodipodi:guide
       position="74.835466,193.29943"
       orientation="0,-1"
       id="guide18" />
    <sodipodi:guide
       position="109.58051,163.09797"
       orientation="0,-1"
       id="guide25" />
    <sodipodi:guide
       position="109.58051,98.151475"
       orientation="0,-1"
       id="guide33" />
    <sodipodi:guide
       position="109.58051,215.75007"
       orientation="0,-1"
       id="guide47" />
    <sodipodi:guide
       position="109.58051,183.66428"
       orientation="0,-1"
       id="guide49" />
  </sodipodi:namedview>
  <metadata
     id="metadata5">
    <rdf:RDF>
      <cc:Work
         rdf:about="">
        <dc:format>image/svg+xml</dc:format>
        <dc:type
           rdf:resource="http://purl.org/dc/dcmitype/StillImage" />
        <dc:title></dc:title>
      </cc:Work>
    </rdf:RDF>
  </metadata>
  <g
     inkscape:label="Capa 1"
     inkscape:groupmode="layer"
     id="layer1"
     style="display:inline">
    <ellipse
       style="fill:#ffffff;fill-rule:evenodd;stroke:#000000;stroke-width:1.1;paint-order:stroke fill markers"
       id="path10"
       cx="-109.23512"
       cy="91.092255"
       rx="50.270832"
       ry="42.711311"
       transform="scale(-1,1)" />
    <ellipse
       style="fill:#ffffff;fill-rule:evenodd;stroke:#000000;stroke-width:1.1;paint-order:stroke fill markers"
       id="path12"
       cx="109.61309"
       cy="165.8667"
       rx="31.08576"
       ry="31.75" />
    <path
       style="fill:#ffffff;fill-rule:evenodd;stroke:#000000;stroke-width:1.1;paint-order:stroke fill markers"
       id="path51"
       sodipodi:type="arc"
       sodipodi:cx="96.855789"
       sodipodi:cy="115.50414"
       sodipodi:rx="8.0954094"
       sodipodi:ry="4.1922655"
       sodipodi:start="0"
       sodipodi:end="3.4060281"
       sodipodi:arc-type="slice"
       d="m 104.9512,115.50414 a 8.0954094,4.1922655 0 0 1 -4.68059,3.80104 8.0954094,4.1922655 0 0 1 -8.62934,-0.59432 8.0954094,4.1922655 0 0 1 -2.599495,-4.30243 l 7.814014,1.09571 z" />
    <path
       style="fill:#ffffff;fill-rule:evenodd;stroke:#000000;stroke-width:1.1;paint-order:stroke fill markers"
       id="path53"
       sodipodi:type="arc"
       sodipodi:cx="-123.4641"
       sodipodi:cy="115.50415"
       sodipodi:rx="8.0954094"
       sodipodi:ry="4.1922655"
       sodipodi:start="0"
       sodipodi:end="3.4060281"
       sodipodi:arc-type="slice"
       d="m -115.36869,115.50415 a 8.0954094,4.1922655 0 0 1 -4.68059,3.80104 8.0954094,4.1922655 0 0 1 -8.62934,-0.59432 8.0954094,4.1922655 0 0 1 -2.5995,-4.30243 l 7.81402,1.09571 z"
       transform="scale(-1,1)" />
    <circle
       style="fill:#ffffff;fill-rule:evenodd;stroke:#000000;stroke-width:1.1;paint-order:stroke fill markers"
       id="path55"
       sodipodi:type="arc"
       sodipodi:cx="109.86626"
       sodipodi:cy="128.37006"
       sodipodi:rx="4.3368263"
       sodipodi:ry="0.57824349"
       sodipodi:start="0"
       sodipodi:end="3.4060275"
       sodipodi:arc-type="slice"
       d="m 114.20308,128.37006 a 4.3368263,0.57824349 0 0 1 -2.50745,0.52428 4.3368263,0.57824349 0 0 1 -4.62286,-0.082 4.3368263,0.57824349 0 0 1 -1.39259,-0.59344 l 4.18608,0.15114 z" />
    <path
       style="fill:#ffffff;fill-rule:evenodd;stroke:#000000;stroke-width:1.1;paint-order:stroke fill markers"
       id="path89"
       d="m 116.06883,114.51152 c 0.94893,-0.0165 1.89806,-0.0149 2.8471,-0.0123 0.84882,0.002 1.69765,0.004 2.54647,0.007 0.64914,0.003 1.29828,0.002 1.94742,-7.9e-4 0.83615,0.002 1.67226,-0.004 2.5084,-0.004 0.95133,0.002 1.90266,-0.002 2.85398,-5.3e-4 0.99165,0.0367 1.95733,-0.2146 2.92844,-0.37251 0.83349,-0.12871 1.67563,-0.17681 2.51777,-0.19702 0.4302,-0.005 0.21745,-0.004 0.63827,-0.006 0,0 -3.84494,-0.60384 -3.84494,-0.60384 v 0 c -0.41227,0.009 -0.20419,0.003 -0.62423,0.0172 -0.81796,0.0407 -1.63365,0.11854 -2.44119,0.25843 -0.97031,0.16691 -1.94003,0.3567 -2.9313,0.30839 -0.95404,10e-4 -1.90808,-0.002 -2.86211,-5.3e-4 -0.85187,8e-4 -1.7037,-0.005 -2.55557,-0.004 -0.65269,-0.003 -1.30537,-0.004 -1.95806,-7.9e-4 -0.82114,0.002 -1.64229,0.004 -2.46343,0.007 -1.00059,0.003 -2.00122,0.003 -3.00173,-0.0122 0,0 3.89471,0.61686 3.89471,0.61686 z" />
    <path
       style="fill:#ffffff;fill-rule:evenodd;stroke:#000000;stroke-width:1.17088;paint-order:stroke fill markers"
       id="path91"
       d="m 102.6175,114.72983 c -0.9477,-0.0187 -1.89559,-0.0169 -2.843404,-0.014 -0.84771,0.002 -1.69544,0.005 -2.543147,0.008 -0.6483,0.003 -1.29659,0.002 -1.94489,-8.9e-4 -0.83506,0.002 -1.67008,-0.005 -2.50513,-0.005 -0.950088,0.002 -1.900188,-0.002 -2.850268,-6e-4 -0.99036,0.0416 -1.95478,-0.24347 -2.92463,-0.42262 -0.8324,-0.14602 -1.67344,-0.20059 -2.51449,-0.22352 -0.42964,-0.006 -0.21716,-0.005 -0.63744,-0.007 0,0 3.83994,-0.68506 3.83994,-0.68506 v 0 c 0.41173,0.0102 0.20392,0.003 0.62342,0.0195 0.81689,0.0462 1.63152,0.13449 2.43801,0.29319 0.96904,0.18936 1.937498,0.40468 2.927478,0.34987 0.9528,10e-4 1.9056,-0.002 2.85839,-6e-4 0.85076,9.1e-4 1.701477,-0.006 2.552237,-0.005 0.65184,-0.003 1.303674,-0.005 1.955514,-8.9e-4 0.82007,0.002 1.64015,0.005 2.46023,0.008 0.99928,0.003 1.99861,0.003 2.99782,-0.0138 0,0 -3.88964,0.69983 -3.88964,0.69983 z" />
    <path
       style="fill:none;stroke:#000000;stroke-width:0.264583px;stroke-linecap:butt;stroke-linejoin:miter;stroke-opacity:1"
       d="M 94.372834,49.72894 109.58051,89.802559 125.47884,50.596305"
       id="path124" />
  </g>
  <g
     inkscape:groupmode="layer"
     id="layer2"
     inkscape:label="Capa 2"
     style="display:inline">
    <path
       style="fill:none;stroke:#000000;stroke-width:0.264583px;stroke-linecap:butt;stroke-linejoin:miter;stroke-opacity:1"
       d="m 109.58051,47.841246 c -21.294647,2.687099 -41.143308,4.059665 -54.043921,-0.884176 22.623093,5.468695 -6.672263,30.051401 1.391819,56.7435 l 28.33057,30.20146 h 24.321532"
       id="path29"
       sodipodi:nodetypes="ccccc" />
    <path
       style="fill:none;stroke:#000000;stroke-width:0.264583px;stroke-linecap:butt;stroke-linejoin:miter;stroke-opacity:1"
       d="M 94.346142,133.90203 79.37905,155.28359 76.171816,198.84852 H 109.58051"
       id="path35" />
    <path
       style="fill:none;stroke:#000000;stroke-width:0.264583px;stroke-linecap:butt;stroke-linejoin:miter;stroke-opacity:1"
       d="m 124.81488,133.90203 14.96709,21.38156 3.20724,43.56493 h -33.4087"
       id="path37" />
    <path
       style="fill:none;stroke:#000000;stroke-width:0.264583px;stroke-linecap:butt;stroke-linejoin:miter;stroke-opacity:1"
       d="m 109.58051,89.802561 c -8.91938,4.174847 -21.621319,-4.085965 -34.745044,13.898009 -0.60597,3.2222 4.426333,18.2478 6.949009,20.84702 9.572513,4.91614 18.747675,6.65346 27.796035,7.37639"
       id="path39"
       sodipodi:nodetypes="cccc" />
    <path
       style="fill:none;stroke:#000000;stroke-width:0.264583px;stroke-linecap:butt;stroke-linejoin:miter;stroke-opacity:1"
       d="m 109.58051,89.802561 c 26.4745,-1.324459 29.98481,6.536757 34.74504,13.898009 -0.15644,8.67693 -4.45287,14.04186 -6.94901,20.84702 -8.42587,3.55317 -17.09227,6.74556 -27.59823,7.17859"
       id="path41"
       sodipodi:nodetypes="cccc" />
    <ellipse
       style="fill:#ffffff;fill-rule:evenodd;stroke:#000000;stroke-width:1.1;paint-order:stroke fill markers"
       id="path43"
       cx="88.332573"
       cy="72.430038"
       rx="5.2117558"
       ry="8.0180855" />
    <ellipse
       style="fill:#ffffff;fill-rule:evenodd;stroke:#000000;stroke-width:1.1;paint-order:stroke fill markers"
       id="ellipse45"
       cx="130.56116"
       cy="72.430038"
       rx="5.2117558"
       ry="8.0180855" />
    <ellipse
       style="fill:#ffffff;fill-rule:evenodd;stroke:#000000;stroke-width:1.1;paint-order:stroke fill markers"
       id="path96"
       cx="109.58051"
       cy="81.249931"
       rx="2.2484532e-12"
       ry="1.173106e-12" />
    <ellipse
       style="fill:#ffffff;fill-rule:evenodd;stroke:#000000;stroke-width:1.1;paint-order:stroke fill markers"
       id="path98"
       cx="115.65207"
       cy="88.767097"
       rx="3.3265827"
       ry="3.0391374" />
    <path
       style="fill:none;stroke:#000000;stroke-width:0.264583px;stroke-linecap:butt;stroke-linejoin:miter;stroke-opacity:1"
       d="m 109.58051,47.841246 c 21.29465,2.687099 41.14331,4.059665 54.04392,-0.884176 -22.62309,5.468695 6.67226,30.051401 -1.39182,56.7435 l -28.33057,30.20146 h -24.32153"
       id="path112"
       sodipodi:nodetypes="ccccc" />
    <path
       style="fill:none;stroke:#000000;stroke-width:0.264583px;stroke-linecap:butt;stroke-linejoin:miter;stroke-opacity:1"
       d="m 125.47884,50.596305 c 0,0 11.85399,-1.156486 22.26237,-7.806286 10.40838,-6.649801 10.11926,-6.649801 10.11926,-6.649801 -0.69055,10.390595 -2.47033,19.750968 -15.03434,23.12974"
       id="path114"
       sodipodi:nodetypes="cscc" />
    <ellipse
       style="fill:#ffffff;fill-rule:evenodd;stroke:#000000;stroke-width:1.1;paint-order:stroke fill markers"
       id="path118"
       cx="115.07214"
       cy="81.249931"
       rx="5.4916306"
       ry="2.105575e-13" />
    <ellipse
       style="fill:#ffffff;fill-rule:evenodd;stroke:#000000;stroke-width:1.1;paint-order:stroke fill markers"
       id="ellipse120"
       cx="103.50896"
       cy="88.767097"
       rx="3.3265827"
       ry="3.0391374" />
    <ellipse
       style="fill:#ffffff;fill-rule:evenodd;stroke:#000000;stroke-width:1.1;paint-order:stroke fill markers"
       id="path126"
       cx="123.82594"
       cy="196.32144"
       rx="9.0990295"
       ry="3.8571973" />
    <ellipse
       style="fill:#ffffff;fill-rule:evenodd;stroke:#000000;stroke-width:1.1;paint-order:stroke fill markers"
       id="ellipse128"
       cx="95.144211"
       cy="196.32146"
       rx="9.0990295"
       ry="3.8571973" />
    <path
       style="fill:none;stroke:#000000;stroke-width:0.264583px;stroke-linecap:butt;stroke-linejoin:miter;stroke-opacity:1"
       d="m 94.372834,49.72894 c 0,0 -11.85399,-1.156486 -22.26237,-7.806286 -10.40838,-6.649801 -10.11926,-6.649801 -10.11926,-6.649801 0.69055,10.390595 2.47033,19.750968 15.03434,23.12974"
       id="path116"
       sodipodi:nodetypes="cscc" />
  </g>
  <g
     inkscape:groupmode="layer"
     id="layer3"
     inkscape:label="Capa 3"
     style="display:inline" />
</svg>
