<?xml version="1.0" encoding="UTF-8" standalone="no"?>
<svg
   xmlns:dc="http://purl.org/dc/elements/1.1/"
   xmlns:cc="http://creativecommons.org/ns#"
   xmlns:rdf="http://www.w3.org/1999/02/22-rdf-syntax-ns#"
   xmlns:svg="http://www.w3.org/2000/svg"
   xmlns="http://www.w3.org/2000/svg"
   xmlns:sodipodi="http://sodipodi.sourceforge.net/DTD/sodipodi-0.dtd"
   xmlns:inkscape="http://www.inkscape.org/namespaces/inkscape"
   width="210mm"
   height="297mm"
   viewBox="0 0 210 297"
   version="1.1"
   id="svg8"
   inkscape:version="1.0.2 (e86c870879, 2021-01-15)"
   sodipodi:docname="figuras.svg">
  <defs
     id="defs2" />
  <sodipodi:namedview
     id="base"
     pagecolor="#ffffff"
     bordercolor="#666666"
     borderopacity="1.0"
     inkscape:pageopacity="0.0"
     inkscape:pageshadow="2"
     inkscape:zoom="1.8916477"
     inkscape:cx="506.24277"
     inkscape:cy="455.87115"
     inkscape:document-units="mm"
     inkscape:current-layer="layer1"
     inkscape:document-rotation="0"
     showgrid="false"
     inkscape:snap-global="false"
     inkscape:window-width="1366"
     inkscape:window-height="705"
     inkscape:window-x="-8"
     inkscape:window-y="315"
     inkscape:window-maximized="1" />
  <metadata
     id="metadata5">
    <rdf:RDF>
      <cc:Work
         rdf:about="">
        <dc:format>image/svg+xml</dc:format>
        <dc:type
           rdf:resource="http://purl.org/dc/dcmitype/StillImage" />
        <dc:title></dc:title>
      </cc:Work>
    </rdf:RDF>
  </metadata>
  <g
     inkscape:label="Capa 1"
     inkscape:groupmode="layer"
     id="layer1">
    <path
       style="fill:none;stroke:#000000;stroke-width:0.264583px;stroke-linecap:butt;stroke-linejoin:miter;stroke-opacity:1"
       d="M 4.4758157,35.806528 C 9.0345191,29.154975 16.010503,22.48206 24.896726,20.980387 c 5.518744,0.711529 11.910781,4.432024 15.945094,8.112415 2.048238,-4.229277 10.546994,-7.421823 17.064045,-8.671892 8.953786,1.745855 15.159239,4.830622 18.462743,14.82614 C 66.250289,45.920404 54.468894,47.967933 41.401296,49.79345 26.375429,47.848516 10.819274,46.433871 4.4758157,35.806528 Z"
       id="path10"
       sodipodi:nodetypes="ccccccc" />
    <path
       style="fill:none;stroke:#000000;stroke-width:0.264583px;stroke-linecap:butt;stroke-linejoin:miter;stroke-opacity:1"
       d="m 105.18167,57.346388 c 16.00341,-0.92719 18.73113,-1.191358 14.82614,-12.028753 -3.81731,-0.489612 -9.01562,-0.209648 -14.82613,-3.356861 -1.97898,-2.999294 -4.25807,-11.982406 5.31502,-17.623526 l 14.82614,-10.909801 11.74902,9.23137 c 6.85659,4.906332 7.38353,12.164354 5.31503,19.301957 -3.68332,3.053562 -12.18096,4.2818 -17.34378,3.6366 -2.00056,5.640414 -1.57021,9.859116 15.10587,11.189539 z"
       id="path12"
       sodipodi:nodetypes="cccccccccc" />
    <path
       style="fill:none;stroke:#000000;stroke-width:0.264583px;stroke-linecap:butt;stroke-linejoin:miter;stroke-opacity:1"
       d="m 154.97512,34.687574 c 9.55306,4.39845 11.97366,3.15771 15.38562,2.237906 23.73084,-11.562524 13.99513,-17.670148 16.92418,-25.596071 0.26614,-1.7318542 2.37649,-3.870363 5.4549,-4.1960775 0.77898,-0.3545821 5.82693,1.929543 4.47581,4.0562085 0.60969,2.374189 2.46814,3.499624 5.31504,3.6366 -12.23385,-1.044314 -6.38736,0.74597 -6.15425,11.329409 3.52914,19.673849 -7.39583,23.5393 -20.98039,22.37908 l 0.55948,13.007839 -0.97908,10e-7 -0.83922,-13.00784 c -8.55639,-2.181121 -13.99757,-8.952441 -19.16209,-13.847055 z"
       id="path18"
       sodipodi:nodetypes="cccccccccccc" />
    <path
       style="fill:none;stroke:#000000;stroke-width:0.264583px;stroke-linecap:butt;stroke-linejoin:miter;stroke-opacity:1"
       d="m 16.924178,137.3516 c 0.679932,-4.30315 -1.260817,-6.91398 -3.916338,-8.25229 -6.7077564,-2.43058 -8.5729311,-9.25395 -8.6718934,-13.42744 -0.694335,-5.19412 1.2680509,-6.86496 2.3777771,-8.81177 -0.5482175,4.01762 1.6629348,6.19566 3.2169928,8.81177 -0.7678474,-10.503 4.4699225,-14.53841 8.2522855,-20.141177 -1.688449,7.474507 3.41476,11.930497 8.252284,16.504567 7.3381,8.29493 3.901541,14.19827 -9.511108,25.31634 z"
       id="path20"
       sodipodi:nodetypes="cccccccc" />
    <path
       style="fill:none;stroke:#000000;stroke-width:0.264583px;stroke-linecap:butt;stroke-linejoin:miter;stroke-opacity:1"
       d="M 44.758157,118.46925 H 38.88365 l 6.446851,11.16627 h 25.723074 l 6.443634,-11.1607 -6.163895,-0.006 c -1.909324,-2.43118 -0.342233,-6.32489 -13.00784,-9.79085 -8.603612,1.45566 -11.866809,4.49557 -13.567317,9.79128 z"
       id="path22"
       sodipodi:nodetypes="cccccccc" />
    <path
       style="fill:none;stroke:#000000;stroke-width:0.264583px;stroke-linecap:butt;stroke-linejoin:miter;stroke-opacity:1"
       d="m 93.572525,102.52415 -0.139869,27.27451 c 0,0 6.433983,3.49673 10.769934,0.55948 4.33594,-2.93726 -2.65752,-3.77647 -0.83922,-9.23137 1.8183,-5.45491 8.53202,-0.97909 8.53202,-0.97909 0,0 0.41961,3.49673 -1.53856,5.31503 -1.95817,1.8183 -0.13987,4.75556 -0.13987,4.75556 0.51107,0.0341 -0.4153,0.0189 2.51765,0 7.41819,-0.0479 6.43399,0.13987 6.43399,0.13987 -0.0481,0.24558 -0.14638,-1.87497 -2.51765,-7.83268 -1.89764,-4.76773 3.67266,-4.03469 6.85359,-1.67844 3.77647,2.79739 7.85046,1.49769 6.85359,-4.75555 -1.23231,-7.73013 -5.88103,-0.12031 -10.21045,-2.2379 -1.50144,-3.96297 1.30244,-9.46449 1.25883,-13.42746 -0.22836,-0.28544 -8.54903,-3.51797 -8.25229,0.13987 0.19326,2.38227 2.93725,7.41307 2.93725,7.41307 0.0142,0.009 1.69902,2.81118 -7.13333,3.49674 -6.61058,0.51311 -8.19116,-5.66767 -3.49673,-6.29412 3.44321,-0.45947 9.68483,-7.913142 0.13986,-6.573852 -9.981686,1.400572 -9.267602,2.364782 -12.028745,3.916332 z"
       id="path26"
       sodipodi:nodetypes="ccsscscscsssccscsssc" />
    <path
       style="fill:none;stroke:#000000;stroke-width:0.264583px;stroke-linecap:butt;stroke-linejoin:miter;stroke-opacity:1"
       d="m 151.12301,98.111272 c 5.36081,3.885208 6.48165,5.775468 5.42849,11.332818 -7.32919,14.23578 -0.7898,17.00633 1.49468,18.73354 4.38238,1.62363 7.10988,1.82471 8.90123,1.38464 -13.41411,11.20135 -11.90024,16.1158 -11.67049,21.75854 17.30778,2.02952 22.17854,-10.64487 24.92342,-18.59366 -2.82572,-1.05 -5.70892,-1.5577 -5.34073,-8.30782 -0.23963,-5.11881 3.73886,-6.01951 4.94511,-9.69244 -1.16082,-8.07379 -8.74369,-18.872069 -28.68171,-16.615618 z"
       id="path30"
       sodipodi:nodetypes="ccccccccc" />
    <path
       style="fill:none;stroke:#000000;stroke-width:0.264583px;stroke-linecap:butt;stroke-linejoin:miter;stroke-opacity:1"
       d="m 210.22545,98.251141 c -5.36081,3.885209 -6.48165,5.775469 -5.42849,11.332819 7.32919,14.23578 0.7898,17.00633 -1.49468,18.73354 -4.38238,1.62363 -7.10988,1.82471 -8.90123,1.38464 13.41411,11.20135 11.90024,16.1158 11.67049,21.75854 -17.30778,2.02952 -22.17854,-10.64487 -24.92342,-18.59366 2.82572,-1.05 5.70892,-1.5577 5.34073,-8.30782 0.23963,-5.11881 -3.73886,-6.01951 -4.94511,-9.69244 1.16082,-8.07379 8.74369,-18.87207 28.68171,-16.615619 z"
       id="path34"
       sodipodi:nodetypes="ccccccccc" />
  </g>
</svg>
