<?xml version="1.0" encoding="UTF-8" standalone="no"?>
<svg
   xmlns:dc="http://purl.org/dc/elements/1.1/"
   xmlns:cc="http://creativecommons.org/ns#"
   xmlns:rdf="http://www.w3.org/1999/02/22-rdf-syntax-ns#"
   xmlns:svg="http://www.w3.org/2000/svg"
   xmlns="http://www.w3.org/2000/svg"
   xmlns:xlink="http://www.w3.org/1999/xlink"
   xmlns:sodipodi="http://sodipodi.sourceforge.net/DTD/sodipodi-0.dtd"
   xmlns:inkscape="http://www.inkscape.org/namespaces/inkscape"
   width="210mm"
   height="297mm"
   viewBox="0 0 210 297"
   version="1.1"
   id="svg8"
   inkscape:version="1.0.2 (e86c870879, 2021-01-15)"
   sodipodi:docname="hagolacama.svg">
  <defs
     id="defs2">
    <linearGradient
       inkscape:collect="always"
       id="linearGradient957">
      <stop
         style="stop-color:#ffcc00;stop-opacity:1;"
         offset="0"
         id="stop953" />
      <stop
         style="stop-color:#ffcc00;stop-opacity:0;"
         offset="1"
         id="stop955" />
    </linearGradient>
    <linearGradient
       inkscape:collect="always"
       id="linearGradient949">
      <stop
         style="stop-color:#784421;stop-opacity:1;"
         offset="0"
         id="stop945" />
      <stop
         style="stop-color:#784421;stop-opacity:0;"
         offset="1"
         id="stop947" />
    </linearGradient>
    <linearGradient
       inkscape:collect="always"
       id="linearGradient941">
      <stop
         style="stop-color:#784421;stop-opacity:1;"
         offset="0"
         id="stop937" />
      <stop
         style="stop-color:#784421;stop-opacity:0;"
         offset="1"
         id="stop939" />
    </linearGradient>
    <linearGradient
       inkscape:collect="always"
       id="linearGradient923">
      <stop
         style="stop-color:#006680;stop-opacity:1;"
         offset="0"
         id="stop919" />
      <stop
         style="stop-color:#006680;stop-opacity:0;"
         offset="1"
         id="stop921" />
    </linearGradient>
    <linearGradient
       inkscape:collect="always"
       id="linearGradient913">
      <stop
         style="stop-color:#784421;stop-opacity:1;"
         offset="0"
         id="stop909" />
      <stop
         style="stop-color:#784421;stop-opacity:0;"
         offset="1"
         id="stop911" />
    </linearGradient>
    <radialGradient
       inkscape:collect="always"
       xlink:href="#linearGradient913"
       id="radialGradient915"
       cx="97.432327"
       cy="137.27995"
       fx="97.432327"
       fy="137.27995"
       r="61.332637"
       gradientTransform="matrix(7.7222988,-0.01943192,6.5024879e-4,0.25841204,-655.05848,103.69845)"
       gradientUnits="userSpaceOnUse" />
    <linearGradient
       inkscape:collect="always"
       xlink:href="#linearGradient923"
       id="linearGradient925"
       x1="187.42479"
       y1="123.36468"
       x2="189.94243"
       y2="125.04311"
       gradientUnits="userSpaceOnUse" />
    <linearGradient
       inkscape:collect="always"
       xlink:href="#linearGradient941"
       id="linearGradient943"
       x1="36.086266"
       y1="118.88885"
       x2="33.848358"
       y2="200.57249"
       gradientUnits="userSpaceOnUse" />
    <linearGradient
       inkscape:collect="always"
       xlink:href="#linearGradient949"
       id="linearGradient951"
       x1="165.88492"
       y1="113.29409"
       x2="168.12283"
       y2="192.18034"
       gradientUnits="userSpaceOnUse" />
    <linearGradient
       inkscape:collect="always"
       xlink:href="#linearGradient957"
       id="linearGradient959"
       x1="94.831352"
       y1="102.66402"
       x2="121.12677"
       y2="98.747688"
       gradientUnits="userSpaceOnUse" />
  </defs>
  <sodipodi:namedview
     id="base"
     pagecolor="#ffffff"
     bordercolor="#666666"
     borderopacity="1.0"
     inkscape:pageopacity="0.0"
     inkscape:pageshadow="2"
     inkscape:zoom="0.47291192"
     inkscape:cx="237.73422"
     inkscape:cy="351.71483"
     inkscape:document-units="mm"
     inkscape:current-layer="layer1"
     inkscape:document-rotation="0"
     showgrid="false"
     inkscape:snap-global="false"
     showguides="true"
     inkscape:guide-bbox="true"
     inkscape:window-width="1366"
     inkscape:window-height="705"
     inkscape:window-x="-8"
     inkscape:window-y="315"
     inkscape:window-maximized="1">
    <sodipodi:guide
       position="6.7137238,276.29935"
       orientation="0,-1"
       id="guide879" />
  </sodipodi:namedview>
  <metadata
     id="metadata5">
    <rdf:RDF>
      <cc:Work
         rdf:about="">
        <dc:format>image/svg+xml</dc:format>
        <dc:type
           rdf:resource="http://purl.org/dc/dcmitype/StillImage" />
        <dc:title></dc:title>
      </cc:Work>
    </rdf:RDF>
  </metadata>
  <g
     inkscape:label="Capa 1"
     inkscape:groupmode="layer"
     id="layer1">
    <path
       style="fill:#00aad4;stroke:#000000;stroke-width:0.264583px;stroke-linecap:butt;stroke-linejoin:miter;stroke-opacity:1"
       d="m 39.363192,130.35348 c -1.132901,-4.02203 -2.254031,-8.04407 -0.296708,-12.0661 l 122.342376,-0.0989 c 0.73382,4.055 0.96685,8.11 -0.39561,12.165"
       id="path841"
       sodipodi:nodetypes="cccc" />
    <path
       style="fill:url(#linearGradient943);stroke:#000000;stroke-width:0.264583px;stroke-linecap:butt;stroke-linejoin:miter;stroke-opacity:1;fill-opacity:1"
       d="m 23.736598,165.36496 h 22.549769 c -2.708233,-14.3026 -7.821786,-16.33234 -7.318785,-34.81367 -0.533846,-20.80511 2.792919,-36.697957 7.318785,-55.385396 l -22.747574,5.340734 c 7.681551,31.049472 12.303626,55.894682 0.197805,84.858332 z"
       id="path833"
       sodipodi:nodetypes="cccccc" />
    <path
       style="fill:url(#linearGradient951);stroke:#000000;stroke-width:0.170862px;stroke-linecap:butt;stroke-linejoin:miter;stroke-opacity:1;fill-opacity:1"
       d="m 160.33968,165.41182 h 14.30672 c -4.31475,-18.84096 -10.87991,-37.38186 0,-58.24877 l -15.2009,0.12773 c 8.31822,19.50038 -5.87751,38.66626 0.89418,58.12104 z"
       id="path835"
       sodipodi:nodetypes="ccccc" />
    <ellipse
       style="fill:#ffccaa;fill-rule:evenodd;stroke:#037065;stroke-width:0.600001;paint-order:stroke fill markers"
       id="path847"
       cx="101.73109"
       cy="73.781265"
       rx="19.523365"
       ry="12.066104" />
    <path
       style="fill:none;stroke:#000000;stroke-width:0.264583px;stroke-linecap:butt;stroke-linejoin:miter;stroke-opacity:1"
       d="m 89.605656,76.154917 c 9.793831,12.624383 20.406934,7.708334 24.725624,0"
       id="path853"
       sodipodi:nodetypes="cc" />
    <path
       style="fill:#00aad4;stroke:#000000;stroke-width:0.264583px;stroke-linecap:butt;stroke-linejoin:miter;stroke-opacity:1;fill-opacity:1"
       d="m 69.627352,117.49616 c -0.571666,-0.16333 -2.147666,7.0682 -17.604642,6.13195 -5.57184,-0.10634 -6.180552,0.22021 -10.879273,-2.96708 -3.480247,-2.36075 -1.97805,-8.70341 -0.39561,-10.28585 1.58244,-1.58244 9.494639,-5.93415 14.637569,-5.14293 5.142929,0.79122 8.564238,3.67131 11.868299,5.73635 3.164879,1.97805 2.373657,6.52756 2.373657,6.52756 z"
       id="path845"
       sodipodi:nodetypes="ccssssc" />
    <ellipse
       style="fill:#000000;fill-rule:evenodd;stroke:#037065;stroke-width:0.600001;paint-order:stroke fill markers"
       id="path861"
       cx="103.3531"
       cy="77.539558"
       rx="0.29670748"
       ry="0.79121989" />
    <ellipse
       style="fill:#000000;fill-rule:evenodd;stroke:#037065;stroke-width:0.600001;paint-order:stroke fill markers"
       id="ellipse863"
       cx="100.38602"
       cy="77.539558"
       rx="0.29670748"
       ry="0.79121989" />
    <path
       style="fill:none;stroke:#000000;stroke-width:0.264583px;stroke-linecap:butt;stroke-linejoin:miter;stroke-opacity:1"
       d="m 100.84661,79.901213 c 0.9668,-0.705223 1.38228,-0.855745 2.53547,-0.06993"
       id="path865"
       sodipodi:nodetypes="cc" />
    <path
       style="fill:none;stroke:#000000;stroke-width:0.264583px;stroke-linecap:butt;stroke-linejoin:miter;stroke-opacity:1"
       d="m 88.956839,76.508477 1.398694,-0.979086"
       id="path867" />
    <path
       style="fill:none;stroke:#000000;stroke-width:0.264583px;stroke-linecap:butt;stroke-linejoin:miter;stroke-opacity:1"
       d="m 113.50389,75.459457 1.67843,1.608497"
       id="path869" />
    <path
       style="fill:#ffccaa;fill-opacity:1;stroke:#000000;stroke-width:0.264583px;stroke-linecap:butt;stroke-linejoin:miter;stroke-opacity:1"
       d="m 82.802591,77.417627 c -0.696452,1.037988 -0.871984,1.862273 0.233802,2.838352 1.052562,1.463062 1.98076,1.11243 3.192997,1.147922"
       id="path875"
       sodipodi:nodetypes="ccc" />
    <path
       style="fill:#ffccaa;stroke:#000000;stroke-width:0.264583px;stroke-linecap:butt;stroke-linejoin:miter;stroke-opacity:1;fill-opacity:1"
       d="m 120.67585,77.417627 c 0.26491,0.552109 0.28757,0.866754 -0.83922,2.867319 -1.43154,1.094589 -1.7038,1.302485 -2.58758,1.118955"
       id="path877"
       sodipodi:nodetypes="ccc" />
    <path
       style="fill:#28170b;stroke:#000000;stroke-width:0.264583px;stroke-linecap:butt;stroke-linejoin:miter;stroke-opacity:1"
       d="m 97.13919,62.661421 c -4.276414,1.056912 -8.473876,1.876971 -13.287579,4.54575 0,0 -1.118954,-0.209799 -0.559472,-1.468627 0.559477,-1.258822 3.226349,-3.65121 5.105228,-3.776469 2.098039,-0.13987 5.664704,-3.216993 9.23137,-2.587581 3.566663,0.629412 1.04902,1.958168 4.056203,0.629412 3.00719,-1.328758 6.90618,-3.074761 9.79085,-2.657517 4.23098,0.611978 4.75676,2.242694 4.68562,3.426798 -0.0532,0.885163 -6.1592,-0.912447 -6.99347,-1.468627 0,0 -3.56666,0.629412 -1.74836,0.699346 1.8183,0.06994 8.90193,2.383949 9.51111,2.72745 4.62919,2.610296 3.58133,4.898981 0.55947,3.426795 -2.75127,-3.714527 -7.3179,-2.70913 -10.97973,-4.056207 2.78136,1.365276 7.46343,1.716845 7.76274,4.405881 -2.70101,1.004342 -6.74654,-1.455242 -10.35032,-2.797384 2.72966,1.97792 7.228,3.117869 8.11242,5.384966 -0.79838,1.856907 -7.77171,0.942551 -10.4902,-4.266012 0.76227,1.57975 0.47404,4.069144 0.13987,6.014376 -0.51052,1.446701 -2.546075,3.007371 -2.65751,-7.413069 -1.199383,1.471551 -2.446361,3.062086 -3.286929,3.6366 -1.295842,0.09489 -1.576718,-0.622197 0.839216,-3.49673 -2.039861,2.247103 -3.569624,3.127431 -6.713723,4.056207 -0.772909,-1.61009 -1.401312,-2.167725 7.273196,-4.965358 z"
       id="path881"
       sodipodi:nodetypes="ccsssssscsscccccccccccc" />
    <path
       style="fill:url(#radialGradient915);stroke:#000000;stroke-width:0.264583px;stroke-linecap:butt;stroke-linejoin:miter;stroke-opacity:1;fill-opacity:1"
       d="m 159.40591,144.03368 2.00308,-13.50904 -122.291598,0.0266 c -0.26565,4.49413 0.0453,8.98825 1.269822,13.48238 45.347647,-0.74286 79.350736,-0.0316 119.018696,10e-6 z"
       id="path883"
       sodipodi:nodetypes="cccccc" />
    <path
       style="fill:url(#linearGradient959);fill-opacity:1;stroke:#000000;stroke-width:0.264583px;stroke-linecap:butt;stroke-linejoin:miter;stroke-opacity:1"
       d="m 82.942463,105.46141 c 4.102831,-6.620478 10.222732,-20.905821 12.308493,-19.861433 6.301634,-0.03431 5.779094,2.375763 6.713254,2.609832 0.73357,0.183806 -1.42416,-2.163828 6.71419,-2.749702 2.52873,0.146396 6.17606,10.360127 9.37124,16.504573 l -6.43398,2.37778 -3.77647,-6.154252 9.93071,16.644442 -33.708483,0.27974 11.469278,-17.483659 -6.014377,9.650979 z"
       id="path889"
       sodipodi:nodetypes="ccsccccccccc" />
    <path
       style="fill:#004455;stroke:#000000;stroke-width:0.264583px;stroke-linecap:butt;stroke-linejoin:miter;stroke-opacity:1"
       d="m 86.79916,144.06532 -4.89542,15.66536 c 5.686753,-1.06223 11.221281,-0.90666 16.64444,0.13987 l 1.39869,-15.38562 -0.69935,15.66536 c 5.82789,-1.743 11.65577,-0.29974 17.48366,0.13987 l -4.61569,-16.08497 z"
       id="path895"
       sodipodi:nodetypes="cccccccc" />
    <path
       style="fill:#d45500;stroke:#000000;stroke-width:0.264583px;stroke-linecap:butt;stroke-linejoin:miter;stroke-opacity:1"
       d="m 116.5145,160.06835 c 1.27519,2.05142 1.4255,4.10283 1.39869,6.15425 -5.71238,0.25116 -11.08248,1.02688 -17.04707,0.017 -1.223238,-1.91246 -1.508115,-4.11432 -1.490567,-6.27012 5.131257,-1.25067 11.534637,-0.0696 17.138947,0.0989 z"
       id="path897"
       sodipodi:nodetypes="ccccc" />
    <path
       style="fill:#d45500;stroke:#000000;stroke-width:0.264583px;stroke-linecap:butt;stroke-linejoin:miter;stroke-opacity:1"
       d="m 82.001143,159.59081 c -1.043348,1.76286 -1.408262,3.86494 -1.3987,6.15425 5.916535,0.98892 11.690959,0.84096 17.34379,-0.27974 0.464765,-1.6107 0.760488,-3.47496 0.69935,-5.87451 -5.702534,-1.08071 -11.203846,-0.75287 -16.64444,0 z"
       id="path899"
       sodipodi:nodetypes="ccccc" />
    <path
       style="fill:url(#linearGradient925);stroke:#000000;stroke-width:0.264583px;stroke-linecap:butt;stroke-linejoin:miter;stroke-opacity:1;fill-opacity:1"
       d="m 75.853241,123.22256 c 0,0 6.235827,2.77921 7.620461,6.93312 1.384636,4.1539 3.362684,6.32976 3.362684,6.32976 0,0 4.747321,-5.34074 7.516591,-6.13196 2.769269,-0.79122 13.055133,-5.14293 16.220013,-4.1539 3.16487,0.98902 7.12098,5.34073 11.27488,2.76927 4.1539,-2.57147 0.98902,0.1978 9.49464,-4.94513 8.50561,-5.14293 0.84915,-5.53648 10.34379,-5.14086 9.49464,0.39561 12.79939,-0.79328 12.79939,-0.79328 -0.48314,-0.77988 -3.61603,-0.0903 -3.84229,-1.53445 -3.96649,-0.57319 -8.28604,-0.93454 -11.38869,-2.02604 -6.00489,-2.32737 -10.26619,-0.68096 -15.6266,-3.16488 -0.0175,-0.0175 -14.8457,-2.29479 -18.21005,-0.47343 -3.64039,1.97079 -9.426112,-1.22914 -9.878252,-2.69145 -0.374141,-1.21005 0.51209,-2.01313 -2.373662,-1.18683 -4.925134,1.41025 -5.074584,2.75727 -5.198807,2.75727 z"
       id="path851"
       sodipodi:nodetypes="cscsssssccccsssc" />
    <path
       style="fill:#ffccaa;stroke:#000000;stroke-width:0.264583px;stroke-linecap:butt;stroke-linejoin:miter;stroke-opacity:1;fill-opacity:1"
       d="m 82.945047,105.59716 c -1.820101,2.33295 -4.718346,5.04471 -7.273201,8.11242 -5.678596,0.34504 -5.10625,2.77374 -6.713723,4.47582 -0.321443,4.98252 3.300964,5.03523 5.734637,6.57385 4.935386,-0.95962 8.156103,-2.44683 8.252287,-4.89543 -0.788843,-2.3095 -0.372958,-3.65522 0.699346,-4.47581 l 6.154246,-8.25229 z"
       id="path891"
       sodipodi:nodetypes="cccccccc" />
    <path
       style="fill:#ffccaa;stroke:#000000;stroke-width:0.264583px;stroke-linecap:butt;stroke-linejoin:miter;stroke-opacity:1;fill-opacity:1"
       d="m 118.1554,102.08055 6.15424,8.39216 c 5.13915,-0.0703 6.37847,1.95937 6.71372,4.47582 -0.63144,2.99135 -2.13145,5.43985 -5.73464,6.57385 -5.8461,-0.70321 -5.71203,-3.20047 -8.25228,-4.89543 -0.23312,-1.37044 -0.18649,-1.90207 -0.41961,-3.63659 l -5.31503,-8.53203 z"
       id="path893"
       sodipodi:nodetypes="cccccccc" />
  </g>
</svg>
