<?xml version="1.0" encoding="UTF-8" standalone="no"?>
<svg
   version="1.1"
   id="svg33"
   width="353"
   height="266"
   viewBox="0 0 353 266"
   sodipodi:docname="logotienda.svg"
   inkscape:version="1.1.1 (3bf5ae0d25, 2021-09-20)"
   inkscape:export-filename="C:\Users\roger\Desktop\logotienda3.png"
   inkscape:export-xdpi="96"
   inkscape:export-ydpi="96"
   xmlns:inkscape="http://www.inkscape.org/namespaces/inkscape"
   xmlns:sodipodi="http://sodipodi.sourceforge.net/DTD/sodipodi-0.dtd"
   xmlns:xlink="http://www.w3.org/1999/xlink"
   xmlns="http://www.w3.org/2000/svg"
   xmlns:svg="http://www.w3.org/2000/svg"
   xmlns:rdf="http://www.w3.org/1999/02/22-rdf-syntax-ns#"
   xmlns:cc="http://creativecommons.org/ns#"
   xmlns:dc="http://purl.org/dc/elements/1.1/">
  <metadata
     id="metadata39">
    <rdf:RDF>
      <cc:Work
         rdf:about="">
        <dc:format>image/svg+xml</dc:format>
        <dc:type
           rdf:resource="http://purl.org/dc/dcmitype/StillImage" />
        <dc:title />
      </cc:Work>
    </rdf:RDF>
  </metadata>
  <defs
     id="defs37">
    <linearGradient
       id="linearGradient34254"
       inkscape:swatch="solid">
      <stop
         style="stop-color:#000000;stop-opacity:1;"
         offset="0"
         id="stop34252" />
    </linearGradient>
  </defs>
  <sodipodi:namedview
     pagecolor="#ffffff"
     bordercolor="#666666"
     borderopacity="1"
     objecttolerance="10"
     gridtolerance="10"
     guidetolerance="10"
     inkscape:pageopacity="0"
     inkscape:pageshadow="2"
     inkscape:window-width="1366"
     inkscape:window-height="705"
     id="namedview35"
     showgrid="false"
     inkscape:snap-global="false"
     inkscape:zoom="1.2013283"
     inkscape:cx="216.84331"
     inkscape:cy="126.94282"
     inkscape:window-x="-8"
     inkscape:window-y="-8"
     inkscape:window-maximized="1"
     inkscape:current-layer="g41"
     inkscape:document-rotation="0"
     inkscape:pagecheckerboard="0"
     showguides="false" />
  <g
     inkscape:groupmode="layer"
     id="layer1"
     inkscape:label="Image 1"
     style="display:none">
    <rect
       style="fill:#000000;fill-opacity:0;stroke:#000000;stroke-width:3.77953;stroke-linejoin:round;stroke-opacity:0;paint-order:stroke fill markers"
       id="rect142680"
       width="35.316246"
       height="91.233635"
       x="-6.4746451"
       y="38.259266" />
  </g>
  <g
     inkscape:groupmode="layer"
     inkscape:label="Image"
     id="g41">
    <rect
       style="fill:#000000;fill-opacity:0;stroke:none;stroke-width:3.77953;stroke-linejoin:round;stroke-opacity:1;paint-order:stroke fill markers"
       id="rect139003"
       width="101.23991"
       height="105.94874"
       x="-230.14421"
       y="-20.012539" />
    <rect
       style="fill:#000000;fill-opacity:0;stroke:#000000;stroke-width:3.77953;stroke-linejoin:round;stroke-opacity:0;paint-order:stroke fill markers"
       id="rect154231"
       width="17.48065"
       height="3.3296475"
       x="-414.54114"
       y="-25.80477" />
    <g
       id="g317">
      <rect
         style="fill:#ffffff;stroke:#000000;stroke-width:3.77953;stroke-linejoin:round;stroke-opacity:0;paint-order:stroke fill markers"
         id="rect169"
         width="380.41226"
         height="270.53387"
         x="-2.4972358"
         y="-0.83241194" />
      <rect
         style="fill:#000000;fill-opacity:0;stroke:#000000;stroke-width:3.77954;stroke-linejoin:round;stroke-opacity:0;paint-order:stroke fill markers"
         id="rect139049"
         width="351.98526"
         height="264.87183"
         x="1.7658238"
         y="2.3544185"
         inkscape:export-filename="C:\Users\roger\Desktop\rect139049.png"
         inkscape:export-xdpi="96"
         inkscape:export-ydpi="96" />
      <g
         id="g138979"
         transform="translate(-0.49827055,1.5046777)">
        <g
           id="g126756"
           transform="matrix(1,0,0,1.0396509,1.1772093,-9.3485246)"
           style="stroke-width:0.980745" />
        <g
           id="g138937"
           transform="translate(-1.1016455e-6,0.5886039)">
          <path
             style="fill:none;fill-opacity:1;stroke:#ffdd55;stroke-width:0.980745px;stroke-linecap:butt;stroke-linejoin:miter;stroke-opacity:1"
             d="M 66.689552,92.16847 C 110.95916,94.29532 136.647,119.42731 136.647,119.42731"
             id="path101352"
             transform="matrix(1,0,0,1.0396509,1.1772093,-9.3485246)" />
          <path
             style="fill:#50bcaa;fill-opacity:1;stroke:#000000;stroke-width:3.70676;stroke-linejoin:round;stroke-opacity:0;paint-order:stroke fill markers"
             id="path11450"
             sodipodi:type="arc"
             sodipodi:cx="270.16931"
             sodipodi:cy="139.49918"
             sodipodi:rx="21.778353"
             sodipodi:ry="23.544165"
             sodipodi:start="0"
             sodipodi:end="6.2786649"
             sodipodi:open="true"
             sodipodi:arc-type="arc"
             d="m 291.94766,139.49918 a 21.778353,23.544165 0 0 1 -21.75374,23.54415 21.778353,23.544165 0 0 1 -21.80291,-23.49094 21.778353,23.544165 0 0 1 21.70447,-23.59724 21.778353,23.544165 0 0 1 21.85196,23.4376"
             inkscape:transform-center-x="-1.1772083"
             inkscape:transform-center-y="1.1772095"
             transform="matrix(1,0,0,1.0396509,1.1772093,-9.3485246)" />
          <path
             sodipodi:type="star"
             style="fill:none;fill-opacity:1;stroke:#ffaaaa;stroke-width:2.19245;stroke-linejoin:round;stroke-opacity:1;paint-order:stroke fill markers"
             id="path11474"
             inkscape:flatsided="true"
             sodipodi:sides="3"
             sodipodi:cx="290.77042"
             sodipodi:cy="103.00572"
             sodipodi:r1="10.853323"
             sodipodi:r2="8.7805233"
             sodipodi:arg1="2.2794226"
             sodipodi:arg2="3.3266202"
             inkscape:rounded="0"
             inkscape:randomized="0"
             d="m 283.70717,111.24618 3.45843,-18.47764 14.27289,12.23391 z"
             inkscape:transform-center-x="6.0055902"
             inkscape:transform-center-y="-1.1817499"
             transform="matrix(1.0320784,1.3774986,-1.3923382,1.0210784,124.19212,-465.0813)" />
          <path
             id="path8293"
             style="fill:#ff2a2a;fill-opacity:1;stroke:#000000;stroke-width:3.70676;stroke-linejoin:round;stroke-opacity:0;paint-order:stroke fill markers"
             d="m 3.3925781,60.03727 a 41.202286,38.84787 0 0 0 -2.2148437,0.15625 v 77.3789 a 41.202286,38.84787 0 0 0 2.4003906,0.16016 41.202286,38.84787 0 0 0 41.15625,-38.847656 v -0.17578 A 41.202286,38.84787 0 0 0 3.3925781,60.03727 Z"
             transform="matrix(1,0,0,1.0396509,1.1772093,-9.3485246)" />
          <path
             style="fill:none;stroke:#000000;stroke-width:0;stroke-linecap:butt;stroke-linejoin:miter;stroke-miterlimit:4;stroke-dasharray:none;stroke-opacity:1"
             d="m 220.72939,160.83722 0.56236,-22.21353 14.62158,-0.14059 c -2.14182,8.66716 -6.3359,17.41264 -15.18394,22.35412 z"
             id="path899"
             sodipodi:nodetypes="cccc"
             transform="matrix(1,0,0,1.0396509,1.1772093,-9.3485246)" />
          <g
             id="g8245"
             transform="matrix(1.4701095,0,0,1.3570574,-290.61856,-2.0929652)"
             style="stroke-width:0.707988">
            <g
               id="g145"
               transform="translate(128.31569,-5.8860411)"
               style="stroke-width:0.707988">
              <circle
                 style="fill:#00ffff;stroke:#000004;stroke-width:0;stroke-miterlimit:4;stroke-dasharray:none;paint-order:stroke fill markers"
                 id="path47"
                 cx="132.39598"
                 cy="118.46836"
                 r="29.404224" />
              <path
                 style="fill:#ffdd55;stroke:#000000;stroke-width:0;stroke-linecap:butt;stroke-linejoin:miter;stroke-miterlimit:4;stroke-dasharray:none;stroke-opacity:1"
                 d="m 112.71208,105.30338 37.77714,0.20086 v 37.76252 c -4.59907,3.62033 -12.46945,5.14556 -21.82274,5.56393 -4.24222,-1.63283 -8.46685,-1.8157 -18.1415,-10.32428 z"
                 id="path882"
                 sodipodi:nodetypes="cccccc" />
              <path
                 style="fill:#ffeeaa;stroke:#000000;stroke-width:0;stroke-linecap:butt;stroke-linejoin:miter;stroke-miterlimit:4;stroke-dasharray:none;stroke-opacity:1"
                 d="m 117.36745,105.65281 -2.44416,36.46771 -4.28184,-3.29771 1.88179,-33.28647 z"
                 id="path884"
                 sodipodi:nodetypes="ccccc" />
              <path
                 style="fill:#ffaaaa;stroke:#000000;stroke-width:0;stroke-linecap:butt;stroke-linejoin:miter;stroke-miterlimit:4;stroke-dasharray:none;stroke-opacity:1"
                 d="m 129.41355,130.00037 0.14059,18.79622 6.64366,-0.14059 c 4.71305,-0.31093 8.79634,-1.60022 12.45819,-4.01355 6.88263,-4.65055 9.13145,-9.40798 11.69223,-14.70032 l -11.25079,-0.14059 z"
                 id="path886"
                 sodipodi:nodetypes="ccccccc" />
              <path
                 style="fill:#ff5555;stroke:#000000;stroke-width:0.212396;stroke-linecap:butt;stroke-linejoin:miter;stroke-miterlimit:4;stroke-dasharray:none;stroke-opacity:1"
                 d="m 127.22645,123.24024 v 6.5613 h 32.80647 l 1.61107,-6.01261 z"
                 id="path888" />
              <path
                 id="path892"
                 style="fill:#ff8080;stroke:#000000;stroke-width:0.212396;stroke-linecap:butt;stroke-linejoin:miter;stroke-miterlimit:4;stroke-dasharray:none;stroke-opacity:1"
                 d="m 127.49751,123.70672 v 0.44585 6.09319 -0.55434 l 1.33754,0.70296 v 18.27546 l 7.42063,-0.0883 -0.16466,-18.16314 c -0.0874,-3.44829 0.44558,-5.21886 -0.008,-6.83627 l -0.28119,0.26514 z"
                 sodipodi:nodetypes="ccccccccccc" />
              <path
                 style="fill:#ffffff;stroke:#000000;stroke-width:0.0707988;stroke-linecap:butt;stroke-linejoin:miter;stroke-miterlimit:4;stroke-dasharray:none;stroke-opacity:1"
                 d="m 143.61571,123.67911 -7.87316,-0.42177 c -1.82612,-2.42372 -0.41819,-4.87288 1.8277,-6.18605 6.09001,-0.6685 4.98541,4.1164 6.32665,5.48309 -0.006,-1.38634 0.53895,-3.74475 3.65539,-3.37421 4.393,-0.0904 3.21453,2.84687 3.79597,3.79599 -0.061,-2.13239 1.82765,-4.78017 4.35836,-5.06132 1.05293,1.11416 2.90683,1.01114 2.95243,5.48309 -2.0387,0.59724 -4.11497,1.10053 -6.88901,-0.14059 -2.9812,1.15679 -5.546,1.50224 -8.15433,0.42177 z"
                 id="path901"
                 sodipodi:nodetypes="cccccccccc" />
              <circle
                 style="fill:#000000;fill-opacity:1;stroke:#000004;stroke-width:1.45251;paint-order:stroke fill markers"
                 id="path903"
                 cx="123.37045"
                 cy="109.19813"
                 r="0.74715275" />
              <circle
                 style="fill:#000000;fill-opacity:1;stroke:#000004;stroke-width:1.45251;paint-order:stroke fill markers"
                 id="circle907"
                 cx="142.20979"
                 cy="108.77636"
                 r="0.74715275" />
              <path
                 style="fill:none;stroke:#ffffff;stroke-width:0.707988px;stroke-linecap:butt;stroke-linejoin:miter;stroke-opacity:1"
                 d="m 123.37047,108.91695 c -0.28637,-4.45104 -0.93838,-8.82895 0.56237,-13.637423 3.13989,-5.10265 5.43622,-4.04825 8.57611,-5.06131 6.93967,-0.11273 8.35445,3.44561 9.56025,5.48308 0.97729,4.592683 0.81924,9.185353 0.70296,13.778023"
                 id="path909"
                 sodipodi:nodetypes="ccccc" />
              <path
                 style="fill:#ffffff;stroke:#000000;stroke-width:0.125882;stroke-linecap:butt;stroke-linejoin:miter;stroke-miterlimit:4;stroke-dasharray:none;stroke-opacity:1"
                 d="m 143.92531,123.39762 0.24678,23.30658 c 2.60666,-0.51888 5.51011,-2.44731 8.05434,-4.70728 l -0.9249,-18.41809 z"
                 id="path983"
                 sodipodi:nodetypes="ccccc" />
              <path
                 style="fill:#ff2a2a;stroke:#000000;stroke-width:0.283195;stroke-linecap:butt;stroke-linejoin:miter;stroke-miterlimit:4;stroke-dasharray:none;stroke-opacity:1"
                 d="m 128.71296,130.00575 7.45138,-0.28119 0.14059,-6.46723 -9.13848,0.14059 0.14059,6.46724 z"
                 id="path985"
                 sodipodi:nodetypes="cccccc" />
            </g>
          </g>
          <text
             xml:space="preserve"
             style="font-style:normal;font-variant:normal;font-weight:normal;font-stretch:normal;font-size:15.7281px;line-height:7.35;font-family:Verdana;-inkscape-font-specification:Verdana;letter-spacing:0px;fill:#16502d;fill-opacity:1;stroke-width:0.385629"
             x="278.21695"
             y="239.31914"
             id="text161"
             transform="matrix(0.97474494,0,0,1.0665876,1.1772093,-9.3485246)"><tspan
               sodipodi:role="line"
               id="tspan159"
               x="278.21695"
               y="239.31914"
               style="font-style:normal;font-variant:normal;font-weight:bold;font-stretch:normal;font-family:Verdana;-inkscape-font-specification:'Verdana Bold';fill:#16502d;fill-opacity:1;stroke-width:0.385629">Catalogo</tspan></text>
          <text
             xml:space="preserve"
             style="font-style:normal;font-variant:normal;font-weight:normal;font-stretch:normal;font-size:36.4658px;line-height:1.25;font-family:Forte;-inkscape-font-specification:'Forte, Normal';font-variant-ligatures:normal;font-variant-caps:normal;font-variant-numeric:normal;font-variant-east-asian:normal;text-align:center;text-anchor:middle;stroke-width:1.16974"
             x="173.37157"
             y="115.77647"
             id="text100"
             transform="matrix(1.0466235,0,0,0.993338,1.1772093,-9.3485246)"><tspan
               sodipodi:role="line"
               x="173.37157"
               y="115.77647"
               style="text-align:center;text-anchor:middle;stroke-width:1.16974"
               id="tspan1764">Mundo Maravilloso </tspan><tspan
               sodipodi:role="line"
               x="173.37157"
               y="161.35872"
               style="text-align:center;text-anchor:middle;stroke-width:1.16974"
               id="tspan5814">store</tspan></text>
          <path
             style="fill:#00ffff;fill-opacity:1;stroke:#000000;stroke-width:3.70676;stroke-linejoin:round;stroke-opacity:0;paint-order:stroke fill markers"
             id="path11422"
             sodipodi:type="arc"
             sodipodi:cx="208.95445"
             sodipodi:cy="57.683201"
             sodipodi:rx="5.8860412"
             sodipodi:ry="5.2974372"
             sodipodi:start="0"
             sodipodi:end="6.2786649"
             sodipodi:open="true"
             sodipodi:arc-type="arc"
             d="m 214.84049,57.683201 a 5.8860412,5.2974372 0 0 1 -5.87939,5.297434 5.8860412,5.2974372 0 0 1 -5.89267,-5.285461 5.8860412,5.2974372 0 0 1 5.86607,-5.30938 5.8860412,5.2974372 0 0 1 5.90593,5.27346"
             transform="matrix(1,0,0,1.0396509,1.1772093,-9.3485246)" />
          <path
             style="fill:none;fill-opacity:1;stroke:#ffdd55;stroke-width:3.70676;stroke-linejoin:round;stroke-opacity:1;paint-order:stroke fill markers"
             id="path11446"
             sodipodi:type="arc"
             sodipodi:cx="168.34077"
             sodipodi:cy="26.487185"
             sodipodi:rx="14.715102"
             sodipodi:ry="12.94929"
             sodipodi:start="0"
             sodipodi:end="6.2786649"
             sodipodi:open="true"
             sodipodi:arc-type="arc"
             d="M 183.05588,26.487185 A 14.715102,12.94929 0 0 1 168.3574,39.436467 14.715102,12.94929 0 0 1 153.62571,26.516453 14.715102,12.94929 0 0 1 168.29089,13.537969 14.715102,12.94929 0 0 1 183.05573,26.428649"
             transform="matrix(1,0,0,1.0396509,1.1772093,-9.3485246)" />
          <path
             id="path11448"
             style="fill:#ffdd55;fill-opacity:1;stroke:#000000;stroke-width:3.70676;stroke-linejoin:round;stroke-opacity:0;paint-order:stroke fill markers"
             d="m 346.64825,24.720516 a 11.772082,10.006269 0 0 0 -11.73242,10.029297 11.772082,10.006269 0 0 0 11.78516,9.984375 11.772082,10.006269 0 0 0 5.28515,-1.09375 V 25.816219 a 11.772082,10.006269 0 0 0 -5.33789,-1.095703 z"
             transform="matrix(1,0,0,1.0396509,1.1772093,-9.3485246)" />
          <path
             id="path11556"
             style="fill:#00ffff;fill-opacity:1;stroke:#000000;stroke-width:3.70675;stroke-linejoin:round;stroke-opacity:0;paint-order:stroke fill markers"
             inkscape:transform-center-x="-1.9135054"
             inkscape:transform-center-y="1.5591046"
             d="m 77.900979,240.73153 0.546875,24.72851 h 11.498047 l 15.378909,-10.24609 z"
             transform="matrix(1,0,0,1.0396509,1.1772093,-9.3485246)" />
          <path
             style="fill:#00ffff;fill-opacity:1;stroke:#000000;stroke-width:7.86321;stroke-linejoin:round;stroke-opacity:0;paint-order:stroke fill markers"
             id="path11558"
             sodipodi:type="arc"
             sodipodi:cx="217.78352"
             sodipodi:cy="252.51115"
             sodipodi:rx="2.3544166"
             sodipodi:ry="2.9430206"
             sodipodi:start="0"
             sodipodi:end="6.2786649"
             sodipodi:open="true"
             sodipodi:arc-type="arc"
             d="m 220.13794,252.51115 a 2.3544166,2.9430206 0 0 1 -2.35176,2.94302 2.3544166,2.9430206 0 0 1 -2.35707,-2.93636 2.3544166,2.9430206 0 0 1 2.34643,-2.94966 2.3544166,2.9430206 0 0 1 2.36238,2.9297"
             transform="matrix(1,0,0,1.0396509,1.1772093,-9.3485246)" />
          <path
             style="fill:#ffeeaa;fill-opacity:1;stroke:#000000;stroke-width:1.68218;stroke-linejoin:round;stroke-opacity:0;paint-order:stroke fill markers"
             id="path11560"
             sodipodi:type="arc"
             sodipodi:cx="187.76471"
             sodipodi:cy="170.69518"
             sodipodi:rx="13.537894"
             sodipodi:ry="11.183478"
             sodipodi:start="0"
             sodipodi:end="6.2786649"
             sodipodi:open="true"
             sodipodi:arc-type="arc"
             d="m 201.3026,170.69518 a 13.537894,11.183478 0 0 1 -13.52259,11.18347 13.537894,11.183478 0 0 1 -13.55316,-11.1582 13.537894,11.183478 0 0 1 13.49196,-11.20869 13.537894,11.183478 0 0 1 13.58366,11.13286"
             transform="matrix(1,0,0,1.0396509,1.1772093,-9.3485246)" />
          <path
             style="fill:#2ca05a;fill-opacity:0;stroke:#ffaaaa;stroke-width:3.70676;stroke-linejoin:round;stroke-opacity:1;paint-order:stroke fill markers"
             id="path50303"
             sodipodi:type="arc"
             sodipodi:cx="36.787754"
             sodipodi:cy="214.25189"
             sodipodi:rx="15.009405"
             sodipodi:ry="14.126498"
             sodipodi:start="0"
             sodipodi:end="6.2786649"
             sodipodi:open="true"
             sodipodi:arc-type="arc"
             d="M 51.797159,214.25189 A 15.009405,14.126498 0 0 1 36.804716,228.37838 15.009405,14.126498 0 0 1 21.778387,214.28382 15.009405,14.126498 0 0 1 36.736868,200.12548 15.009405,14.126498 0 0 1 51.797006,214.18803"
             transform="matrix(1,0,0,1.0396509,1.1772093,-9.3485246)" />
          <path
             style="fill:#2ca05a;fill-opacity:0;stroke:#ffaaaa;stroke-width:3.70676;stroke-linejoin:round;stroke-opacity:1;paint-order:stroke fill markers"
             id="path50305"
             sodipodi:type="arc"
             sodipodi:cx="248.97954"
             sodipodi:cy="210.13167"
             sodipodi:rx="14.126498"
             sodipodi:ry="14.715102"
             sodipodi:start="0"
             sodipodi:end="6.2786649"
             sodipodi:open="true"
             sodipodi:arc-type="arc"
             d="m 263.10604,210.13167 a 14.126498,14.715102 0 0 1 -14.11054,14.71509 14.126498,14.715102 0 0 1 -14.14242,-14.68183 14.126498,14.715102 0 0 1 14.07856,-14.74828 14.126498,14.715102 0 0 1 14.17425,14.6485"
             transform="matrix(1,0,0,1.0396509,1.1772093,-9.3485246)" />
          <path
             sodipodi:type="star"
             style="fill:none;fill-opacity:1;stroke:#2ab29c;stroke-width:3.70676;stroke-linejoin:round;stroke-opacity:1;paint-order:stroke fill markers"
             id="path50351"
             inkscape:flatsided="true"
             sodipodi:sides="3"
             sodipodi:cx="90.645027"
             sodipodi:cy="47.088329"
             sodipodi:r1="14.573153"
             sodipodi:r2="7.2865763"
             sodipodi:arg1="0.75683451"
             sodipodi:arg2="1.8040321"
             inkscape:rounded="0"
             inkscape:randomized="0"
             d="M 101.2399,57.094599 76.681907,51.260624 94.013274,32.909765 Z"
             inkscape:transform-center-x="1.6841234"
             inkscape:transform-center-y="-2.0861475"
             transform="matrix(1,0,0,1.0396509,1.1772093,-9.3485246)" />
          <path
             style="fill:none;fill-opacity:1;stroke:#2ab29c;stroke-width:0.980745px;stroke-linecap:butt;stroke-linejoin:miter;stroke-opacity:1"
             d="m 282.56447,189.81404 c 31.07417,-31.6025 66.92983,-34.02185 66.92983,-34.02185"
             id="path76366"
             transform="matrix(1,0,0,1.0396509,1.1772093,-9.3485246)" />
          <path
             style="fill:none;fill-opacity:1;stroke:#ffdd55;stroke-width:0.980745px;stroke-linecap:butt;stroke-linejoin:miter;stroke-opacity:1"
             d="m 209.72035,236.96508 c 44.26961,2.12685 69.95745,27.25884 69.95745,27.25884"
             id="path97350"
             transform="matrix(1,0,0,1.0396509,1.1772093,-9.3485246)" />
          <path
             sodipodi:type="star"
             style="fill:none;fill-opacity:1;stroke:#ffdd55;stroke-width:2.19245;stroke-linejoin:round;stroke-opacity:1;paint-order:stroke fill markers"
             id="path114090"
             inkscape:flatsided="true"
             sodipodi:sides="3"
             sodipodi:cx="290.77042"
             sodipodi:cy="103.00572"
             sodipodi:r1="10.853323"
             sodipodi:r2="8.7805233"
             sodipodi:arg1="2.2794226"
             sodipodi:arg2="3.3266202"
             inkscape:rounded="0"
             inkscape:randomized="0"
             d="m 283.70717,111.24618 3.45843,-18.47764 14.27289,12.23391 z"
             inkscape:transform-center-x="-1.9948038"
             inkscape:transform-center-y="1.2015698"
             transform="matrix(1.6393642,-0.3794323,0.29096999,1.7454166,-342.29286,160.66801)" />
          <path
             style="fill:#ff2a2a;fill-opacity:1;stroke:#000000;stroke-width:7.86321;stroke-linejoin:round;stroke-opacity:0;paint-order:stroke fill markers"
             id="path122226"
             sodipodi:type="arc"
             sodipodi:cx="320.20065"
             sodipodi:cy="213.66328"
             sodipodi:rx="2.3544166"
             sodipodi:ry="2.9430206"
             sodipodi:start="0"
             sodipodi:end="6.2786649"
             sodipodi:open="true"
             sodipodi:arc-type="arc"
             d="m 322.55507,213.66328 a 2.3544166,2.9430206 0 0 1 -2.35176,2.94302 2.3544166,2.9430206 0 0 1 -2.35707,-2.93636 2.3544166,2.9430206 0 0 1 2.34643,-2.94966 2.3544166,2.9430206 0 0 1 2.36238,2.9297"
             transform="matrix(1,0,0,1.0396509,1.1772093,-9.3485246)" />
          <rect
             style="fill:#000000;fill-opacity:0;stroke:none;stroke-width:3.77953;stroke-linejoin:round;stroke-opacity:1;paint-order:stroke fill markers"
             id="rect126780"
             width="351.07587"
             height="266.47284"
             x="2.2534091"
             y="0.97523087" />
        </g>
      </g>
      <use
         x="0"
         y="0"
         xlink:href="#g138979"
         id="use145" />
    </g>
  </g>
</svg>
