<?xml version="1.0" encoding="UTF-8" standalone="no"?>
<svg
   xmlns:dc="http://purl.org/dc/elements/1.1/"
   xmlns:cc="http://creativecommons.org/ns#"
   xmlns:rdf="http://www.w3.org/1999/02/22-rdf-syntax-ns#"
   xmlns:svg="http://www.w3.org/2000/svg"
   xmlns="http://www.w3.org/2000/svg"
   xmlns:xlink="http://www.w3.org/1999/xlink"
   xmlns:sodipodi="http://sodipodi.sourceforge.net/DTD/sodipodi-0.dtd"
   xmlns:inkscape="http://www.inkscape.org/namespaces/inkscape"
   width="210mm"
   height="297mm"
   viewBox="0 0 210 297"
   version="1.1"
   id="svg8"
   inkscape:version="1.0.2 (e86c870879, 2021-01-15)"
   sodipodi:docname="nombre.svg">
  <defs
     id="defs2">
    <linearGradient
       inkscape:collect="always"
       id="linearGradient131">
      <stop
         style="stop-color:#00ffff;stop-opacity:1;"
         offset="0"
         id="stop127" />
      <stop
         style="stop-color:#00ffff;stop-opacity:0;"
         offset="1"
         id="stop129" />
    </linearGradient>
    <linearGradient
       inkscape:collect="always"
       id="linearGradient71">
      <stop
         style="stop-color:#00ffff;stop-opacity:1;"
         offset="0"
         id="stop67" />
      <stop
         style="stop-color:#000000;stop-opacity:1"
         offset="1"
         id="stop69" />
    </linearGradient>
    <linearGradient
       inkscape:collect="always"
       id="linearGradient55">
      <stop
         style="stop-color:#ff00ff;stop-opacity:1;"
         offset="0"
         id="stop51" />
      <stop
         style="stop-color:#ff00ff;stop-opacity:0;"
         offset="1"
         id="stop53" />
    </linearGradient>
    <linearGradient
       inkscape:collect="always"
       id="linearGradient39">
      <stop
         style="stop-color:#00ffff;stop-opacity:1;"
         offset="0"
         id="stop35" />
      <stop
         style="stop-color:#00ffff;stop-opacity:0;"
         offset="1"
         id="stop37" />
    </linearGradient>
    <linearGradient
       inkscape:collect="always"
       xlink:href="#linearGradient39"
       id="linearGradient41"
       x1="218.37671"
       y1="205.71718"
       x2="-387.69775"
       y2="188.31035"
       gradientUnits="userSpaceOnUse" />
    <linearGradient
       inkscape:collect="always"
       xlink:href="#linearGradient55"
       id="linearGradient57"
       x1="52.220516"
       y1="122.63909"
       x2="369.49973"
       y2="-94.946396"
       gradientUnits="userSpaceOnUse" />
    <radialGradient
       inkscape:collect="always"
       xlink:href="#linearGradient71"
       id="radialGradient65"
       cx="2118.2102"
       cy="207.11"
       fx="2118.2102"
       fy="207.11"
       r="91.287892"
       gradientTransform="matrix(-1.8585623,1.9889083,-1.4252164,-1.469019,4362.5506,-3846.2589)"
       gradientUnits="userSpaceOnUse" />
    <linearGradient
       inkscape:collect="always"
       xlink:href="#linearGradient39"
       id="linearGradient60"
       gradientUnits="userSpaceOnUse"
       x1="218.37671"
       y1="205.71718"
       x2="-387.69775"
       y2="188.31035"
       gradientTransform="matrix(0.32671225,0,0,0.32671225,121.79582,124.07981)" />
    <linearGradient
       inkscape:collect="always"
       xlink:href="#linearGradient55"
       id="linearGradient62"
       gradientUnits="userSpaceOnUse"
       x1="111.36762"
       y1="104.71572"
       x2="242.24382"
       y2="-21.460592"
       gradientTransform="matrix(1.234818,0,0,1.234818,481.82494,461.14696)" />
    <radialGradient
       inkscape:collect="always"
       xlink:href="#linearGradient71"
       id="radialGradient64"
       gradientUnits="userSpaceOnUse"
       gradientTransform="matrix(-2.2582364,2.3010464,-1.7317018,-1.6995659,5757.7479,-3991.588)"
       cx="2118.2102"
       cy="207.11"
       fx="2118.2102"
       fy="207.11"
       r="91.287892" />
    <linearGradient
       inkscape:collect="always"
       xlink:href="#linearGradient39"
       id="linearGradient115"
       gradientUnits="userSpaceOnUse"
       x1="218.37671"
       y1="205.71718"
       x2="-387.69775"
       y2="188.31035"
       gradientTransform="matrix(0.32671225,0,0,0.32671225,120.62467,219.52908)" />
    <linearGradient
       inkscape:collect="always"
       xlink:href="#linearGradient55"
       id="linearGradient117"
       gradientUnits="userSpaceOnUse"
       x1="52.220516"
       y1="122.63909"
       x2="369.49973"
       y2="-94.946396" />
    <radialGradient
       inkscape:collect="always"
       xlink:href="#linearGradient71"
       id="radialGradient119"
       gradientUnits="userSpaceOnUse"
       gradientTransform="matrix(-1.8585623,1.9889083,-1.4252164,-1.469019,4362.5506,-3846.2589)"
       cx="2118.2102"
       cy="207.11"
       fx="2118.2102"
       fy="207.11"
       r="91.287892" />
    <linearGradient
       inkscape:collect="always"
       xlink:href="#linearGradient131"
       id="linearGradient133"
       x1="167.76819"
       y1="251.50591"
       x2="216.07841"
       y2="206.41637"
       gradientUnits="userSpaceOnUse" />
  </defs>
  <sodipodi:namedview
     id="base"
     pagecolor="#ffffff"
     bordercolor="#666666"
     borderopacity="1.0"
     inkscape:pageopacity="0.0"
     inkscape:pageshadow="2"
     inkscape:zoom="0.90366503"
     inkscape:cx="265.78224"
     inkscape:cy="1025.4193"
     inkscape:document-units="mm"
     inkscape:current-layer="layer1"
     inkscape:document-rotation="0"
     showgrid="false"
     inkscape:window-width="1366"
     inkscape:window-height="705"
     inkscape:window-x="-8"
     inkscape:window-y="315"
     inkscape:window-maximized="1" />
  <metadata
     id="metadata5">
    <rdf:RDF>
      <cc:Work
         rdf:about="">
        <dc:format>image/svg+xml</dc:format>
        <dc:type
           rdf:resource="http://purl.org/dc/dcmitype/StillImage" />
        <dc:title></dc:title>
      </cc:Work>
    </rdf:RDF>
  </metadata>
  <g
     inkscape:label="Capa 1"
     inkscape:groupmode="layer"
     id="layer1">
    <path
       id="path46"
       style="fill:url(#linearGradient60);fill-opacity:1;fill-rule:evenodd;stroke:#0ef7e1;stroke-width:0.106099;paint-order:stroke fill markers"
       d="m 104.60551,175.0166 c -47.956047,8e-5 -93.652934,5.59206 -93.65227,13.53325 -6.54e-4,7.9412 45.696223,13.53316 93.65227,13.53325 47.95604,-9e-5 93.65257,-5.59206 93.65191,-13.53325 6.6e-4,-7.94119 -45.69587,-13.53315 -93.65191,-13.53325 z" />
    <g
       id="g82"
       transform="matrix(0.32671225,0,0,0.32671225,115.64725,21.603599)">
      <path
         id="path20"
         style="fill:url(#linearGradient41);fill-opacity:1;fill-rule:evenodd;stroke:#0ef7e1;stroke-width:0.324748;paint-order:stroke fill markers"
         d="m -52.616047,155.90719 c -146.783753,2.4e-4 -286.652663,17.11618 -286.650633,41.42255 -0.002,24.30638 139.86688,41.42225 286.650633,41.42254 146.783709,-2.9e-4 286.651527,-17.11617 286.649527,-41.42254 0.002,-24.30637 -139.865803,-41.42225 -286.649527,-41.42255 z" />
      <path
         style="fill:url(#linearGradient57);fill-opacity:1;fill-rule:evenodd;stroke:#0ef7e1;stroke-width:0.4;paint-order:stroke fill markers"
         sodipodi:type="inkscape:offset"
         inkscape:radius="27.128525"
         inkscape:original="M 115.12305 -12.990234 C 57.591636 -12.989475 3.5968854 29.855985 3.5976562 89.802734 C 3.596875 149.74952 57.591642 192.59496 115.12305 192.5957 C 172.65442 192.59495 226.6492 149.74951 226.64844 89.802734 C 226.6492 29.855981 172.65442 -12.98947 115.12305 -12.990234 z "
         xlink:href="#path15"
         id="path17"
         inkscape:href="#path15"
         transform="translate(17.406838,-6.3297597)"
         d="M 115.12305,-40.119141 C 44.122878,-40.118204 -23.53223,13.565829 -23.53125,89.802734 -23.532243,166.03967 44.122883,219.7237 115.12305,219.72461 186.12318,219.72368 253.77831,166.03967 253.77734,89.802734 253.77831,13.56582 186.12318,-40.118198 115.12305,-40.119141 Z" />
      <path
         style="fill:#ffffff;fill-rule:evenodd;stroke:#0ef7e1;stroke-width:0.4;paint-order:stroke fill markers"
         sodipodi:type="inkscape:offset"
         inkscape:radius="21.896185"
         inkscape:original="M 101.67188 23.148438 C 54.865978 23.149056 12.042371 57.540331 12.042969 104.04492 C 12.042363 150.54955 54.865987 184.94081 101.67188 184.94141 C 148.47775 184.9408 191.30137 150.54954 191.30078 104.04492 C 191.30137 57.540328 148.47775 23.14906 101.67188 23.148438 z "
         xlink:href="#path10"
         id="path15"
         inkscape:href="#path10"
         transform="translate(13.450739,-14.241959)"
         d="M 101.67188,1.2519531 C 44.140469,1.2527127 -9.8542865,44.098171 -9.8535156,104.04492 -9.8542968,163.99171 44.140475,206.83715 101.67188,206.83789 159.20325,206.83714 213.19803,163.9917 213.19727,104.04492 213.19803,44.098167 159.20325,1.2527177 101.67188,1.2519531 Z" />
      <path
         id="path10"
         style="fill:url(#radialGradient65);fill-opacity:1;fill-rule:evenodd;stroke:#0ef7e1;stroke-width:0.4;paint-order:stroke fill markers"
         sodipodi:type="inkscape:offset"
         inkscape:radius="25.73542"
         inkscape:original="M 106.02344 59.660156 C 73.423489 59.660608 40.671482 88.101113 40.671875 120.26562 C 40.671476 152.43018 73.423483 180.87065 106.02344 180.87109 C 138.62338 180.87064 171.37539 152.43016 171.375 120.26562 C 171.37539 88.101118 138.62337 59.660611 106.02344 59.660156 z "
         transform="matrix(0.98398699,0,0,0.93693115,-2.6539556,-8.6349943)"
         d="m 106.02344,33.923828 c -47.567597,6.6e-4 -91.0885,36.706778 -91.087893,86.341792 -6.16e-4,49.63505 43.520305,86.34116 91.087893,86.3418 47.56757,-6.5e-4 91.08849,-36.70676 91.08789,-86.3418 6e-4,-49.635017 -43.52031,-86.341128 -91.08789,-86.341792 z" />
    </g>
    <text
       xml:space="preserve"
       style="font-size:12.1015px;line-height:1.25;font-family:Chiller;-inkscape-font-specification:Chiller;stroke-width:0.302539"
       x="20.433281"
       y="87.529129"
       id="text86"><tspan
         sodipodi:role="line"
         id="tspan84"
         x="20.433281"
         y="87.529129"
         style="stroke-width:0.302539">roger alexander parada blanco </tspan></text>
    <path
       id="path48"
       style="fill:url(#linearGradient62);fill-opacity:1;fill-rule:evenodd;stroke:#0ef7e1;stroke-width:0.493927;paint-order:stroke fill markers"
       d="M 623.98047 411.60742 C 536.30818 411.60858 452.76637 477.89841 452.76758 572.03711 C 452.76635 666.17585 536.30819 732.46567 623.98047 732.4668 C 711.6527 732.46565 795.19456 666.17585 795.19336 572.03711 C 795.19359 554.20778 792.19196 537.38085 786.73828 521.81055 A 96.827909 96.827909 0 0 1 689.96875 615.27148 A 96.827909 96.827909 0 0 1 593.14062 518.44336 A 96.827909 96.827909 0 0 1 683.35547 421.8418 C 664.44727 415.18216 644.326 411.60769 623.98047 411.60742 z "
       transform="scale(0.26458333)" />
    <path
       id="path50"
       style="fill:#ffffff;fill-rule:evenodd;stroke:#0ef7e1;stroke-width:0.493927;paint-order:stroke fill markers"
       d="M 602.48633 452.92188 C 531.44551 452.92281 464.77249 505.83019 464.77344 579.85352 C 464.77247 653.87689 531.44552 706.78229 602.48633 706.7832 C 667.84523 706.78235 729.50251 661.99954 738.94727 597.19141 A 96.827909 96.827909 0 0 1 693.28711 608.63281 A 96.827909 96.827909 0 0 1 596.46094 511.80469 A 96.827909 96.827909 0 0 1 615.94141 453.55664 C 611.4845 453.13863 606.99433 452.92193 602.48633 452.92188 z "
       transform="scale(0.26458333)" />
    <path
       id="path52"
       style="fill:url(#radialGradient64);fill-opacity:1;fill-rule:evenodd;stroke:#0ef7e1;stroke-width:0.474254;paint-order:stroke fill markers"
       d="M 585.87695 497.54883 C 528.08019 497.54959 475.20043 540.0167 475.20117 597.44141 C 475.20042 654.86615 528.0802 697.33129 585.87695 697.33203 C 640.64429 697.33132 690.98791 659.19722 696.11523 606.33984 A 96.827909 96.827909 0 0 1 692.18164 606.41992 A 96.827909 96.827909 0 0 1 595.35352 509.5918 A 96.827909 96.827909 0 0 1 596.05078 497.99219 C 592.68286 497.7018 589.28901 497.54887 585.87695 497.54883 z "
       transform="scale(0.26458333)" />
    <text
       xml:space="preserve"
       style="font-size:12.1015px;line-height:1.25;font-family:Chiller;-inkscape-font-specification:Chiller;stroke-width:0.302539"
       x="26.581854"
       y="190.00534"
       id="text58"><tspan
         sodipodi:role="line"
         id="tspan56"
         x="26.581854"
         y="190.00534"
         style="stroke-width:0.302539">roger alexander parada blanco </tspan></text>
    <path
       id="path105"
       style="fill:url(#linearGradient115);fill-opacity:1;fill-rule:evenodd;stroke:#0ef7e1;stroke-width:0.106099;paint-order:stroke fill markers"
       d="m 103.43436,270.46587 c -47.956047,8e-5 -93.6529336,5.59206 -93.6522704,13.53325 -6.534e-4,7.9412 45.6962234,13.53316 93.6522704,13.53325 47.95604,-9e-5 93.65257,-5.59206 93.65191,-13.53325 6.6e-4,-7.94119 -45.69587,-13.53315 -93.65191,-13.53325 z" />
    <path
       style="fill:url(#linearGradient117);fill-opacity:1;fill-rule:evenodd;stroke:#0ef7e1;stroke-width:0.4;paint-order:stroke fill markers"
       sodipodi:type="inkscape:offset"
       inkscape:radius="27.128525"
       inkscape:original="M 115.12305 -12.990234 C 57.591636 -12.989475 3.5968854 29.855985 3.5976562 89.802734 C 3.596875 149.74952 57.591642 192.59496 115.12305 192.5957 C 172.65442 192.59495 226.6492 149.74951 226.64844 89.802734 C 226.6492 29.855981 172.65442 -12.98947 115.12305 -12.990234 z "
       xlink:href="#path15"
       id="path107"
       inkscape:href="#path15"
       transform="matrix(0.32671225,0,0,0.32671225,126.3117,217.46107)"
       d="M 115.12305,-40.119141 C 44.122878,-40.118204 -23.53223,13.565829 -23.53125,89.802734 -23.532243,166.03967 44.122883,219.7237 115.12305,219.72461 186.12318,219.72368 253.77831,166.03967 253.77734,89.802734 253.77831,13.56582 186.12318,-40.118198 115.12305,-40.119141 Z" />
    <path
       style="fill:#ffffff;fill-rule:evenodd;stroke:#0ef7e1;stroke-width:0.4;paint-order:stroke fill markers"
       sodipodi:type="inkscape:offset"
       inkscape:radius="21.896185"
       inkscape:original="M 101.67188 23.148438 C 54.865978 23.149056 12.042371 57.540331 12.042969 104.04492 C 12.042363 150.54955 54.865987 184.94081 101.67188 184.94141 C 148.47775 184.9408 191.30137 150.54954 191.30078 104.04492 C 191.30137 57.540328 148.47775 23.14906 101.67188 23.148438 z "
       xlink:href="#path10"
       id="path109"
       inkscape:href="#path10"
       transform="matrix(0.32671225,0,0,0.32671225,125.01919,214.87606)"
       d="M 101.67188,1.2519531 C 44.140469,1.2527127 -9.8542865,44.098171 -9.8535156,104.04492 -9.8542968,163.99171 44.140475,206.83715 101.67188,206.83789 159.20325,206.83714 213.19803,163.9917 213.19727,104.04492 213.19803,44.098167 159.20325,1.2527177 101.67188,1.2519531 Z" />
    <circle
       style="fill:url(#linearGradient133);fill-rule:evenodd;stroke:#0ef7e1;stroke-width:0;paint-order:stroke fill markers;fill-opacity:1;stroke-miterlimit:4;stroke-dasharray:none"
       id="path125"
       cx="184.60358"
       cy="232.3282"
       r="30.010889" />
    <path
       id="path111"
       style="fill:url(#radialGradient119);fill-opacity:1;fill-rule:evenodd;stroke:#0ef7e1;stroke-width:0.4;paint-order:stroke fill markers"
       sodipodi:type="inkscape:offset"
       inkscape:radius="25.73542"
       inkscape:original="M 106.02344 59.660156 C 73.423489 59.660608 40.671482 88.101113 40.671875 120.26562 C 40.671476 152.43018 73.423483 180.87065 106.02344 180.87109 C 138.62338 180.87064 171.37539 152.43016 171.375 120.26562 C 171.37539 88.101118 138.62337 59.660611 106.02344 59.660156 z "
       transform="matrix(0.3214806,0,0,0.30610688,119.75759,216.70792)"
       d="m 106.02344,33.923828 c -47.567597,6.6e-4 -91.0885,36.706778 -91.087893,86.341792 -6.16e-4,49.63505 43.520305,86.34116 91.087893,86.3418 47.56757,-6.5e-4 91.08849,-36.70676 91.08789,-86.3418 6e-4,-49.635017 -43.52031,-86.341128 -91.08789,-86.341792 z" />
    <text
       xml:space="preserve"
       style="font-size:12.1015px;line-height:1.25;font-family:Chiller;-inkscape-font-specification:Chiller;stroke-width:0.302539"
       x="27.167433"
       y="286.91855"
       id="text960"><tspan
         sodipodi:role="line"
         id="tspan958"
         x="27.167433"
         y="286.91855"
         style="stroke-width:0.302539">roger alexander parada blanco </tspan></text>
  </g>
</svg>
