<?xml version="1.0" encoding="UTF-8" standalone="no"?>
<svg
   xmlns:dc="http://purl.org/dc/elements/1.1/"
   xmlns:cc="http://creativecommons.org/ns#"
   xmlns:rdf="http://www.w3.org/1999/02/22-rdf-syntax-ns#"
   xmlns:svg="http://www.w3.org/2000/svg"
   xmlns="http://www.w3.org/2000/svg"
   xmlns:sodipodi="http://sodipodi.sourceforge.net/DTD/sodipodi-0.dtd"
   xmlns:inkscape="http://www.inkscape.org/namespaces/inkscape"
   width="210mm"
   height="297mm"
   viewBox="0 0 210 297"
   version="1.1"
   id="svg924"
   inkscape:version="1.0.2 (e86c870879, 2021-01-15)"
   sodipodi:docname="rostro.svg">
  <defs
     id="defs918" />
  <sodipodi:namedview
     id="base"
     pagecolor="#ffffff"
     bordercolor="#666666"
     borderopacity="1.0"
     inkscape:pageopacity="0.0"
     inkscape:pageshadow="2"
     inkscape:zoom="0.44586563"
     inkscape:cx="498.78003"
     inkscape:cy="561.25984"
     inkscape:document-units="mm"
     inkscape:current-layer="layer1"
     inkscape:document-rotation="0"
     showgrid="false"
     inkscape:window-width="1366"
     inkscape:window-height="705"
     inkscape:window-x="-8"
     inkscape:window-y="315"
     inkscape:window-maximized="1" />
  <metadata
     id="metadata921">
    <rdf:RDF>
      <cc:Work
         rdf:about="">
        <dc:format>image/svg+xml</dc:format>
        <dc:type
           rdf:resource="http://purl.org/dc/dcmitype/StillImage" />
        <dc:title></dc:title>
      </cc:Work>
    </rdf:RDF>
  </metadata>
  <g
     inkscape:label="Capa 1"
     inkscape:groupmode="layer"
     id="layer1">
    <path
       style="fill:#440055;stroke:#000000;stroke-width:0.264583px;stroke-linecap:butt;stroke-linejoin:miter;stroke-opacity:1"
       d="M 97.768602,23.917641 C 80.917631,33.739698 76.555746,37.327726 76.788215,50.352928 57.639485,40.720602 52.095404,18.002696 15.105878,30.211756 -26.608567,88.916519 69.660589,93.474368 8.3921546,87.278407 6.8089208,96.542069 3.9551668,105.01922 25.176464,128.39997 c -6.993462,-1.17261 -13.986924,-4.17719 -20.9803867,7.55294 4.5686307,15.07526 18.1271167,20.41151 36.0862637,20.98038 -7.61606,6.91008 -22.164819,0.82135 -21.819601,22.65882 -4.346591,12.37835 8.122206,13.82671 26.015678,11.74902 -16.165657,8.77048 -33.940472,3.15497 -37.764694,51.19214 -1.1300023,18.91395 26.683331,2.69588 31.050971,-7.97255 11.915042,-2.70679 7.047533,25.21133 15.945095,14.68628 5.931391,-4.18574 14.440185,-2.86757 31.470576,-5.03531 16.253974,-6.38153 27.943444,0.93045 41.121564,3.77648 13.76347,-6.67733 41.25372,-0.0261 52.03135,1.25883 4.5697,-0.12733 11.38579,-3.80457 27.69411,-7.13334 5.48225,-21.51595 -12.50823,-35.78049 -2.09804,-48.6745 14.58501,-35.55351 -2.55331,-42.6636 -14.26665,-53.70979 3.5415,-14.1545 28.08433,9.7697 15.52548,-30.63136 -29.51239,-25.875904 0.0652,-41.652447 -1.67843,-49.933319 1.01301,-20.385168 -11.38379,-31.770937 -36.08626,-33.149013 -25.30866,1.386196 -46.67265,6.927689 -60.84312,20.560781 z"
       id="path1703"
       sodipodi:nodetypes="ccccccccccccccccccccccc" />
    <path
       style="fill:#ffccaa;stroke:#000000;stroke-width:0.715;stroke-linecap:butt;stroke-linejoin:miter;stroke-opacity:1;stroke-miterlimit:4;stroke-dasharray:none"
       d="m 118.89221,238.81777 c 42.48521,-0.62586 50.9436,-26.91282 71.96536,-11.00118 0.96735,-17.34272 2.97393,-32.05825 -4.34998,-48.57881 -11.01061,-11.27198 -29.89871,16.65378 -43.48641,19.13331 -12.20313,-22.72268 7.08042,-23.43243 14.13558,-51.11289 6.16125,-24.17324 4.0109,-37.53447 -0.41326,-49.538274 -3.35245,-18.268974 -19.76817,-22.094588 -37.11831,-26.46244 -16.22371,7.531683 -2.9705,10.684324 -18.47658,20.599273 -14.429166,2.629851 -23.590125,7.992731 -31.885163,23.088471 -2.55556,2.99394 -0.414684,41.02715 34.943123,68.43671 10.13716,5.02483 0.67427,-5.23975 14.68564,55.43583 z"
       id="path926"
       sodipodi:nodetypes="ccccscccccc" />
    <path
       style="fill:#000000;stroke:#000000;stroke-width:0.264583px;stroke-linecap:butt;stroke-linejoin:miter;stroke-opacity:1"
       d="m 56.572226,123.2325 c 15.999289,-2.05773 33.071087,-7.13138 41.934656,-2.96707 l 1.978048,5.53854 C 90.372494,120.03714 80.235454,122.98649 56.572226,123.2325 Z"
       id="path928"
       sodipodi:nodetypes="cccc" />
    <path
       style="fill:#000000;stroke:#000000;stroke-width:0.311177px;stroke-linecap:butt;stroke-linejoin:miter;stroke-opacity:1"
       d="m 125.0385,115.87039 1.39584,7.90974 c 7.85787,-15.80337 17.00342,-17.63053 32.28721,-22.30191 -10.35704,1.13805 -23.41489,1.41211 -33.68305,14.39217 z"
       id="path930"
       sodipodi:nodetypes="cccc" />
    <ellipse
       style="fill:#fff6d5;stroke:#000004;stroke-width:0.0649999;paint-order:stroke fill markers"
       id="path934"
       cx="110.86445"
       cy="120.57694"
       rx="13.055129"
       ry="6.5275645"
       transform="rotate(10.826294)" />
    <ellipse
       style="fill:#fff6d5;stroke:#000004;stroke-width:0.0716494;paint-order:stroke fill markers"
       id="ellipse938"
       cx="98.799828"
       cy="163.34439"
       rx="14.390667"
       ry="7.1953335"
       transform="rotate(-18.850291)" />
    <path
       style="fill:#000000;stroke:#000004;stroke-width:0.0634214;paint-order:stroke fill markers"
       id="path952"
       d="m 142.31669,172.72311 c -0.35447,0.42654 -0.72694,0.8337 -1.06842,1.27135 -0.33235,0.42653 -0.65433,0.86181 -0.87994,1.35464 -0.21367,0.47736 -0.39573,0.97386 -0.65681,1.42803 -0.18055,0.34635 -0.3188,0.71 -0.48552,1.06368 -0.22545,0.35531 -0.38509,0.74634 -0.60284,1.10675 -0.2602,0.39128 -0.52441,0.77944 -0.78587,1.16991 -0.27646,0.40622 -0.63167,0.74632 -0.89654,1.16026 -0.2503,0.41375 -0.5114,0.81526 -0.86979,1.14321 -0.27184,0.2686 -0.56437,0.51605 -0.83019,0.79064 -0.27717,0.25105 -0.53811,0.52226 -0.79172,0.79831 -0.38968,0.36518 -0.79563,0.70904 -1.20997,1.04527 -0.58438,0.42402 -1.20594,0.80537 -1.84781,1.13621 -0.57861,0.34703 -1.16824,0.6836 -1.79046,0.94665 -0.0892,0.0404 -0.18085,0.0767 -0.26805,0.12179 -0.28801,0.14875 -0.16464,0.12411 -0.45695,0.24764 -0.2764,0.11681 -0.57169,0.18899 -0.86174,0.26093 -0.61956,0.17505 -1.23005,0.37379 -1.86376,0.49144 -0.55219,0.0908 -1.11358,0.097 -1.6718,0.10347 -0.67048,0.002 -1.88,0.002 1.18771,5.1e-4 0.0775,-4e-5 -0.15511,-1e-4 -0.23268,-2.4e-4 -0.11977,-2.1e-4 -0.3447,-9.7e-4 -0.46509,-9.7e-4 -0.2964,-7.7e-4 -0.14935,-5.1e-4 -0.44111,-9.7e-4 0,0 -1.87838,0.29711 -1.87838,0.29711 v 0 c 0.2929,5.2e-4 0.14527,1.8e-4 0.44277,7.8e-4 1.08677,0.003 2.1736,0.0108 3.2603,-0.002 0.55913,-0.0121 1.12158,-0.0273 1.6717,-0.13806 0.62887,-0.13476 1.23884,-0.33712 1.85975,-0.5034 0.56283,-0.15637 1.08063,-0.384 1.59467,-0.65973 0.61286,-0.28359 1.20159,-0.61686 1.78206,-0.96114 0.64283,-0.35152 1.28005,-0.72447 1.86224,-1.17079 0.423,-0.33868 0.83241,-0.6947 1.22229,-1.07113 0.25781,-0.27154 0.52486,-0.53456 0.79766,-0.79089 0.27435,-0.26263 0.55031,-0.52345 0.82154,-0.7892 0.34403,-0.35509 0.61561,-0.76338 0.87355,-1.18403 0.27551,-0.40459 0.62905,-0.74777 0.89618,-1.15924 0.26193,-0.39372 0.53197,-0.78176 0.78695,-1.18013 0.21395,-0.36848 0.38907,-0.75759 0.6075,-1.12379 0.16742,-0.34912 0.29854,-0.71231 0.48181,-1.05336 0.24209,-0.4681 0.4355,-0.95964 0.6529,-1.4394 0.23014,-0.47448 0.55234,-0.89585 0.87486,-1.31124 0.34577,-0.4292 0.70357,-0.8475 1.08191,-1.24839 0,0 -1.90291,-0.14977 -1.90291,-0.14977 z" />
    <path
       style="fill:#000000;stroke:#000000;stroke-width:0.226569px;stroke-linecap:butt;stroke-linejoin:miter;stroke-opacity:1"
       d="m 112.03102,130.10638 c 0.054,0.39276 2.81682,7.05146 4.57341,8.80805 0.76576,1.38862 0.21631,6.06528 0.16939,9.48559 0.73585,-3.0471 1.79745,-5.76843 1.69385,-9.65498 -2.45424,-2.57087 -4.41705,-5.63316 -6.43665,-8.63866 z"
       id="path980"
       sodipodi:nodetypes="ccccc" />
    <path
       style="fill:#aa4400;stroke:#000004;stroke-width:0.0649999;paint-order:stroke fill markers"
       id="path984"
       transform="rotate(-15.33292)"
       sodipodi:type="arc"
       sodipodi:cx="48.030243"
       sodipodi:cy="156.23814"
       sodipodi:rx="5.0596313"
       sodipodi:ry="8.1998911"
       sodipodi:start="5.9225022"
       sodipodi:end="3.9862496"
       sodipodi:arc-type="arc"
       d="m 52.764317,153.34429 a 5.0596313,8.1998911 0 0 1 -2.386421,10.15762 5.0596313,8.1998911 0 0 1 -6.511165,-2.60456 5.0596313,8.1998911 0 0 1 0.803978,-10.79062"
       sodipodi:open="true" />
    <path
       style="fill:#aa4400;stroke:#000004;stroke-width:0.0718445;paint-order:stroke fill markers"
       id="path986"
       transform="matrix(0.99103814,-0.13357924,0.09011253,0.99593159,0,0)"
       inkscape:transform-center-x="-0.19779809"
       inkscape:transform-center-y="9.7777421"
       sodipodi:type="arc"
       sodipodi:cx="132.2823"
       sodipodi:cy="136.62711"
       sodipodi:rx="6.2064047"
       sodipodi:ry="12.412872"
       sodipodi:start="6.014807"
       sodipodi:end="3.1665921"
       sodipodi:arc-type="arc"
       d="m 138.26653,133.33561 a 6.2064047,12.412872 0 0 1 -2.01362,12.83173 6.2064047,12.412872 0 0 1 -6.67468,1.63255 6.2064047,12.412872 0 0 1 -3.50039,-11.48307"
       sodipodi:open="true" />
    <path
       style="fill:#000000;stroke:#000004;stroke-width:0.0649999;paint-order:stroke fill markers"
       id="path1004"
       d="m 129.48273,127.42155 c 0.32224,-0.49637 0.78032,-0.87809 1.20663,-1.28127 0.38743,-0.30589 0.75459,-0.63843 1.09739,-0.99313 0.31874,-0.23035 0.60498,-0.49462 0.89306,-0.76133 0.34932,-0.2733 0.67536,-0.58362 1.04389,-0.8321 0.39115,-0.30547 0.81384,-0.56846 1.21868,-0.85594 0.39044,-0.26709 0.77957,-0.51773 1.19855,-0.73839 0.3967,-0.26079 0.78268,-0.5352 1.17717,-0.79946 0.49649,-0.29873 0.97429,-0.62798 1.47303,-0.92356 0.57021,-0.37377 1.14495,-0.74492 1.70815,-1.13016 0.45605,-0.31105 0.91243,-0.63092 1.3939,-0.90209 0.41778,-0.28554 0.8561,-0.53739 1.291,-0.79499 0.45266,-0.28562 0.92242,-0.53696 1.40016,-0.77736 0.52784,-0.24965 1.06182,-0.48976 1.60865,-0.69594 0.49889,-0.222 1.03798,-0.31914 1.55365,-0.49302 0.49738,-0.14226 0.98951,-0.30761 1.507,-0.3528 0.55072,-0.1145 1.10617,-0.20238 1.66453,-0.27616 0.54282,-0.0229 1.04982,-0.22501 1.58683,-0.28611 0.52607,-0.079 1.05655,-0.1446 1.57616,-0.26006 0.49576,-0.14536 1.00854,-0.1687 1.51605,-0.24034 0.45014,-0.0736 0.90476,-0.074 1.35838,-0.0451 0.45836,0.012 0.91697,-0.0151 1.37727,0.004 0.47334,0.009 0.94082,0.1098 1.41371,0.0996 0.54475,-0.008 1.08339,-0.075 1.62877,-0.073 0.58713,0.0207 1.16791,0.0758 1.75539,0.0636 0.50791,-0.0151 1.01527,0.021 1.52063,0.0679 0.78783,0.0822 2.86041,0.34926 -0.52555,-0.0749 0.40953,0.0516 0.819,0.10361 1.22856,0.15491 0.32718,0.0412 0.65438,0.0822 0.98159,0.12322 0,0 1.95135,-0.0633 1.95135,-0.0633 v 0 c -0.32729,-0.041 -0.65458,-0.082 -0.98185,-0.12319 -0.41057,-0.0517 -0.82112,-0.1034 -1.23165,-0.1553 -1.09735,-0.13735 -2.19452,-0.28852 -3.2956,-0.39602 -0.50597,-0.0398 -1.01327,-0.0643 -1.52095,-0.0482 -0.58394,0.003 -1.16426,-0.0656 -1.74844,-0.0626 -0.54698,0.0108 -1.09105,0.0748 -1.63859,0.0655 -0.47044,-0.0255 -0.93808,-0.093 -1.40977,-0.10183 -0.46147,-0.0106 -0.92247,0.0216 -1.3832,-0.009 -0.4554,-0.0148 -0.90938,0.008 -1.35998,0.0799 -0.51274,0.0581 -1.02093,0.12751 -1.52247,0.25358 -0.52185,0.0963 -1.04564,0.18171 -1.57206,0.249 -0.52836,0.089 -1.04149,0.25859 -1.58013,0.2875 -0.55871,0.0821 -1.115,0.1753 -1.6712,0.27064 -0.51482,0.0787 -1.01153,0.23995 -1.50906,0.39072 -0.52209,0.16031 -1.0595,0.27453 -1.55821,0.5042 -0.54547,0.22158 -1.08732,0.45344 -1.61606,0.71251 -0.47989,0.24003 -0.9394,0.51424 -1.39961,0.78993 -0.43978,0.25197 -0.86959,0.52012 -1.29559,0.79476 -0.47215,0.28907 -0.93487,0.59518 -1.38546,0.91675 -0.56468,0.37993 -1.13085,0.75975 -1.70867,1.11898 -0.49922,0.30296 -0.98573,0.62624 -1.48381,0.931 -0.39035,0.26051 -0.76834,0.5403 -1.17207,0.78001 -0.42209,0.22376 -0.80672,0.49633 -1.20248,0.76286 -0.40838,0.28496 -0.82939,0.55209 -1.22436,0.85581 -0.36081,0.27035 -0.70528,0.56436 -1.04866,0.85601 -0.29189,0.26697 -0.59954,0.51178 -0.89805,0.77036 -0.34566,0.34559 -0.70308,0.67809 -1.08034,0.98931 -0.43798,0.41518 -0.89423,0.81694 -1.23507,1.32045 0,0 1.92887,0.33304 1.92887,0.33304 z" />
    <ellipse
       style="fill:#ffaaaa;stroke:#000004;stroke-width:0.0649999;paint-order:stroke fill markers"
       id="path1074"
       cx="78.116966"
       cy="185.21767"
       rx="13.566663"
       ry="8.3846588"
       transform="rotate(-23.782155)" />
    <path
       style="fill:#000000;stroke:#000004;stroke-width:0.0649999;paint-order:stroke fill markers"
       id="path1008"
       d="m 137.22364,132.05156 c 0.71101,-0.11424 1.42612,-0.20828 2.13751,-0.32209 0.84084,-0.16392 1.67975,-0.33885 2.52426,-0.4831 0.76656,-0.20242 1.52726,-0.42149 2.28832,-0.6427 0.79007,-0.19024 1.58129,-0.37443 2.37245,-0.56087 0.89684,-0.2161 1.79655,-0.41471 2.69218,-0.63629 0.9204,-0.15445 1.81414,-0.41546 2.70827,-0.67528 0.83816,-0.27031 1.69274,-0.48788 2.52707,-0.76992 0.85418,-0.37149 1.73123,-0.70374 2.56138,-1.12689 0.76326,-0.38186 1.4989,-0.81633 2.21716,-1.27655 0.66481,-0.39935 1.32459,-0.79555 1.96437,-1.23449 0.75806,-0.44705 1.41537,-1.02598 2.08848,-1.58609 0.65489,-0.52832 1.23359,-1.14143 1.84427,-1.71838 0.5261,-0.53678 0.98261,-1.13214 1.46261,-1.70805 0.20083,-0.23924 0.41094,-0.47034 0.60653,-0.71378 0,0 -1.94791,-0.13332 -1.94791,-0.13332 v 0 c -0.19727,0.23896 -0.39539,0.47705 -0.59373,0.7151 -0.45846,0.58167 -0.92217,1.15858 -1.44603,1.68427 -0.60274,0.57757 -1.18609,1.17819 -1.83372,1.70645 -0.67153,0.55886 -1.34688,1.11136 -2.09528,1.56696 -0.64164,0.43416 -1.31246,0.8158 -1.96791,1.22819 -0.71536,0.4533 -1.44554,0.88485 -2.20698,1.25692 -0.83666,0.40319 -1.697,0.76408 -2.56279,1.09939 -0.83426,0.26926 -1.68019,0.50156 -2.51656,0.76432 -0.89518,0.26101 -1.79648,0.49373 -2.71337,0.66703 -0.89476,0.22425 -1.79662,0.41519 -2.69278,0.6336 -0.79405,0.18569 -1.59001,0.3652 -2.37893,0.5708 -0.75668,0.22536 -1.51732,0.4378 -2.28529,0.62138 -0.842,0.15294 -1.67979,0.32803 -2.52212,0.47909 -0.72247,0.10619 -1.4441,0.21925 -2.16783,0.31571 0,0 1.93637,0.27859 1.93637,0.27859 z" />
    <ellipse
       style="fill:#ffaaaa;stroke:#000004;stroke-width:0.0649999;paint-order:stroke fill markers"
       id="ellipse1076"
       cx="105.33363"
       cy="146.08272"
       rx="13.566663"
       ry="8.3846588"
       transform="rotate(4.6938129)"
       inkscape:transform-center-x="-0.2817328"
       inkscape:transform-center-y="0.55847896" />
    <path
       style="fill:#000000;stroke:#000004;stroke-width:0.0649999;paint-order:stroke fill markers"
       id="path1010"
       d="m 99.173489,143.92735 c -0.500605,0.14036 -1.009676,0.23854 -1.498515,0.41893 -0.508304,0.13423 -1.002073,0.31347 -1.502045,0.4748 -0.481788,0.14795 -0.949997,0.3337 -1.429872,0.48614 -0.415867,0.0913 -0.82832,0.19401 -1.250045,0.25707 -0.352933,0.0735 -0.670211,0.23619 -1.008155,0.35033 -0.340416,0.0933 -0.695574,0.10073 -1.04612,0.1096 -0.194712,0.003 -0.389462,0.004 -0.584198,0.004 -0.06577,0 -0.263067,-2.1e-4 -0.197299,-2.3e-4 1.435425,-2.6e-4 2.354998,1.5e-4 1.50723,-2.6e-4 -0.44655,-7.9e-4 -0.893101,-0.002 -1.339654,-0.002 -0.463084,-5.3e-4 -0.926169,1.5e-4 -1.389253,2.3e-4 -1.104696,7.9e-4 -2.209392,-1.6e-4 -3.314089,-5.3e-4 -0.419788,-2.7e-4 -0.839575,4e-5 -1.259366,2e-4 3.403465,0.10345 1.25386,-0.0333 0.460518,-0.19766 -0.593614,-0.11661 -1.19234,-0.18178 -1.784459,-0.3099 -0.740547,-0.14576 -1.485979,-0.2618 -2.224148,-0.42018 -0.761413,-0.18869 -1.525169,-0.37413 -2.276176,-0.60151 -0.692944,-0.20764 -1.397394,-0.37741 -2.073317,-0.63662 -0.662067,-0.22721 -1.340173,-0.40181 -2.008254,-0.61013 -0.576503,-0.18353 -1.151353,-0.37193 -1.733248,-0.53777 -0.459433,-0.16411 -0.927791,-0.28865 -1.402239,-0.39898 -0.369737,-0.09 -0.737989,-0.1755 -1.101651,-0.28764 0,0 -1.939679,0.25129 -1.939679,0.25129 v 0 c 0.369943,0.10064 0.729094,0.22488 1.108123,0.29261 0.470011,0.13353 0.961337,0.19451 1.413028,0.39537 0.58632,0.14976 1.157986,0.35178 1.736704,0.52859 0.663393,0.21638 1.339199,0.38833 2.004489,0.59838 0.67809,0.26814 1.379717,0.45325 2.082347,0.64877 0.74903,0.24194 1.518748,0.41163 2.277735,0.61911 0.737539,0.15893 1.478899,0.29121 2.222214,0.4195 0.587698,0.1315 1.175104,0.226 1.769946,0.31262 1.119217,0.25178 2.232316,0.28712 3.392196,0.2389 0.420616,1.6e-4 0.841232,5.3e-4 1.261849,1.9e-4 0.775464,-2.5e-4 2.802876,-0.001 -0.532773,-5.3e-4 0.46098,9e-5 0.921961,7.9e-4 1.382945,5.3e-4 0.446974,1.3e-4 0.89395,2.6e-4 1.340927,0.002 1.043244,0.003 2.08689,0.0144 3.129933,-0.01 0.358016,-0.0175 0.720019,-0.0418 1.05858,-0.17032 0.323786,-0.12953 0.649671,-0.25256 0.994836,-0.31458 0.422809,-0.076 0.844592,-0.16776 1.25694,-0.28809 0.471852,-0.16862 0.945165,-0.3302 1.421667,-0.48559 0.498906,-0.16683 1.000151,-0.325 1.503508,-0.47758 0.498551,-0.16026 1.011251,-0.26342 1.512181,-0.4151 0,0 -1.943341,-0.244 -1.943341,-0.244 z" />
    <circle
       style="fill:#000000;stroke:#000004;stroke-width:0.0951203;paint-order:stroke fill markers"
       id="path1012"
       sodipodi:type="arc"
       sodipodi:cx="82.911072"
       sodipodi:cy="136.42595"
       sodipodi:rx="2.8303876"
       sodipodi:ry="9.6886749"
       sodipodi:start="0"
       sodipodi:end="3.1021308"
       sodipodi:arc-type="slice"
       d="m 85.741459,136.42595 a 2.8303876,9.6886749 0 0 1 -2.774545,9.68679 2.8303876,9.6886749 0 0 1 -2.884026,-9.30456 l 2.828184,-0.38223 z"
       transform="rotate(-1.9092847)" />
    <circle
       style="fill:#000000;stroke:#000004;stroke-width:0.0695091;paint-order:stroke fill markers"
       id="path1014"
       sodipodi:type="arc"
       sodipodi:cx="143.91415"
       sodipodi:cy="114.78113"
       sodipodi:rx="4.5608845"
       sodipodi:ry="11.654773"
       sodipodi:start="0"
       sodipodi:end="2.7549668"
       sodipodi:arc-type="arc"
       d="m 148.47504,114.78113 a 4.5608845,11.654773 0 0 1 -3.68469,11.43768 4.5608845,11.654773 0 0 1 -5.10043,-7.04307"
       sodipodi:open="true" />
    <ellipse
       style="fill:#ffffff;stroke:#000004;stroke-width:0.0169027;paint-order:stroke fill markers"
       id="path1020"
       cx="89.704559"
       cy="137.35965"
       rx="1.9031959"
       ry="2.3146975" />
    <ellipse
       style="fill:#ffffff;stroke:#000004;stroke-width:0.0147989;paint-order:stroke fill markers"
       id="ellipse1022"
       cx="147.50375"
       cy="120.43979"
       rx="1.6663059"
       ry="2.0265884" />
    <path
       style="fill:#000000;stroke:#000004;stroke-width:0.0649999;paint-order:stroke fill markers"
       id="path1060"
       d="m 65.711847,135.36112 c 0.961628,-0.2513 1.958919,-0.30033 2.930279,-0.49169 0.76771,-0.0989 1.504516,-0.33509 2.264963,-0.47074 0.562044,-0.12415 1.150305,-0.0278 1.705806,-0.16443 0.533331,-0.2154 1.099965,-0.31862 1.653844,-0.47276 0.627068,-0.21547 1.305917,-0.1749 1.937882,-0.34645 0.56759,-0.17023 1.155163,-0.27681 1.715469,-0.46731 0.615341,-0.23923 1.284517,-0.2202 1.91888,-0.36581 0.635248,-0.16059 1.290095,-0.20074 1.942113,-0.2269 0.667977,-0.0214 1.336386,-0.02 2.004621,-0.0193 -6.63108,-0.004 -3.608078,5.3e-4 -2.09975,0.002 0.627171,6e-5 1.254345,1e-5 1.881519,2.6e-4 1.856237,7.9e-4 3.712474,2.6e-4 5.568714,5.3e-4 0.09384,1e-5 0.187685,1e-5 0.281527,2e-5 0.182267,1e-5 0.378151,1e-5 0.560428,2e-5 0.0932,0 0.37279,-2.7e-4 0.279593,0 -3.605284,0.0141 -4.665634,-0.12782 -3.179009,0.0521 0.703575,0.0718 1.397278,0.19721 2.085213,0.35912 0.589958,0.14826 1.160976,0.3594 1.747444,0.51871 0.584665,0.0841 1.12573,0.31119 1.673873,0.51863 0.551783,0.24182 1.110594,0.4586 1.676828,0.66313 0.640027,0.31302 1.313945,0.54732 1.968789,0.82595 0.697404,0.29248 1.389165,0.58898 2.061749,0.93544 0.425765,0.20274 0.221549,0.10363 0.612963,0.29667 0,0 3.834645,-0.41806 3.834645,-0.41806 v 0 c -0.39661,-0.22182 -0.18884,-0.12034 -0.62464,-0.3017 -0.68014,-0.33821 -1.34528,-0.70152 -2.06552,-0.95182 -0.638564,-0.30653 -1.314837,-0.52086 -1.952718,-0.82573 -0.524081,-0.2913 -1.147432,-0.3826 -1.677551,-0.67825 -0.536855,-0.2398 -1.099227,-0.48339 -1.679268,-0.57974 -0.599533,-0.12113 -1.161796,-0.35109 -1.753105,-0.50311 -0.67722,-0.21616 -1.386409,-0.32989 -2.091561,-0.40879 -1.838036,-0.29914 -3.719756,-0.0725 -5.576956,-0.10716 -0.243398,3e-5 -0.323815,3e-5 -0.567637,8e-5 -0.09604,2e-5 -0.384141,6e-5 -0.288105,7e-5 6.260214,2.6e-4 4.259623,-2.7e-4 2.916068,2.6e-4 -0.625147,1.9e-4 -1.250291,1e-4 -1.875435,-7.9e-4 -1.843873,-10e-4 -3.687741,-0.007 -5.531617,-0.002 -0.66616,0.002 -1.332667,0.006 -1.998062,0.041 -0.658926,0.0447 -1.31245,0.12604 -1.956636,0.27588 -0.649534,0.0938 -1.301255,0.18179 -1.92223,0.40661 -0.57272,0.14809 -1.142883,0.30637 -1.720773,0.4334 -0.648094,0.0929 -1.297414,0.17977 -1.92764,0.36574 -0.560163,0.13267 -1.102498,0.32366 -1.666338,0.43428 -0.566891,0.0381 -1.137402,0.0552 -1.694191,0.18112 -0.745617,0.1635 -1.483826,0.36008 -2.241256,0.46626 -0.984176,0.15603 -1.971075,0.29521 -2.953324,0.46292 0,0 3.820112,0.56179 3.820112,0.56179 z" />
    <path
       style="fill:#000000;stroke:#000004;stroke-width:0.0649999;paint-order:stroke fill markers"
       id="path1068"
       d="m 80.753759,132.33956 c 0.777345,-0.004 1.55471,-0.003 2.332061,-0.002 0.618961,5.2e-4 1.237922,0.001 1.856883,0.001 1.340768,0.0114 3.28572,-0.0819 -2.97824,0.0108 -0.09343,0.001 0.185404,0.0236 0.277802,0.0376 0.186359,0.0282 0.37188,0.0616 0.557919,0.0918 0.554111,0.0954 1.116629,0.10551 1.676095,0.14295 0.556464,0.10134 1.116227,0.1743 1.677202,0.24455 0.563613,0.10354 1.122349,0.22235 1.677437,0.36396 0.562959,0.10397 1.119095,0.23843 1.679557,0.35458 0.09355,0.0158 0.187105,0.0315 0.280656,0.0473 0,0 3.825481,-0.55077 3.825481,-0.55077 v 0 c -0.09294,-0.0107 -0.18588,-0.0213 -0.27882,-0.032 -0.56578,-0.0894 -1.108308,-0.26654 -1.677316,-0.33389 -0.561872,-0.12512 -1.10949,-0.29319 -1.679488,-0.38296 -0.550066,-0.13659 -1.128995,-0.1112 -1.67931,-0.26241 -0.550066,-0.11583 -1.119277,-0.0497 -1.675463,-0.13902 -0.267523,-0.0368 -0.569664,-0.13395 -0.837274,-0.14073 -1.554636,-0.0394 -3.108473,-0.0587 -4.663004,-0.0562 -0.614296,1.5e-4 -1.228592,5.2e-4 -1.842889,0.001 -0.785103,8e-4 -1.570217,0.002 -2.355315,-0.002 0,0 3.826026,0.60598 3.826026,0.60598 z" />
    <path
       style="fill:#aa4400;stroke:#000000;stroke-width:0;stroke-linecap:butt;stroke-linejoin:miter;stroke-opacity:1;stroke-miterlimit:4;stroke-dasharray:none"
       d="m 113.03132,155.54576 c 0.27107,-1.07155 1.12426,-2.0318 3.74956,-1.51457 0.5105,1.27248 1.24303,3.03947 0.72626,4.31195 -1.14652,-0.82884 -0.94053,-1.25192 -4.47582,-2.79738 z"
       id="path1080"
       sodipodi:nodetypes="cccc" />
    <path
       style="fill:#aa4400;stroke:#000000;stroke-width:0;stroke-linecap:butt;stroke-linejoin:miter;stroke-opacity:1;stroke-miterlimit:4;stroke-dasharray:none"
       d="m 121.10507,153.40542 c -0.36474,1.42126 -0.23142,2.84251 0.19381,4.26377 1.3605,-0.19227 2.45324,-1.96938 2.98538,-4.23052 z"
       id="path1084"
       sodipodi:nodetypes="cccc" />
    <path
       style="fill:#ff0000;stroke:#000000;stroke-width:0.244687px;stroke-linecap:butt;stroke-linejoin:miter;stroke-opacity:1"
       d="m 121.27878,164.62234 c -4.09133,2.23768 -4.39521,-2.68186 -8.15611,-2.45386 -3.67439,-0.12212 -4.43504,7.11816 -0.8075,11.05161 4.03424,3.16916 7.67222,2.26986 11.52464,2.56103 6.88392,-0.83209 6.26834,-1.51779 8.41482,-3.10982 3.69618,-3.33976 4.98316,-7.80292 -0.12935,-11.31952 -9.13179,-0.8848 -7.98226,0.99945 -10.8465,3.27056 z"
       id="path1647"
       sodipodi:nodetypes="ccccccc" />
    <path
       style="fill:#000000;stroke:#000004;stroke-width:0;stroke-miterlimit:4;stroke-dasharray:none;paint-order:stroke fill markers"
       id="path1655"
       d="m 105.36105,164.14853 c 0.4169,0.21269 0.80055,0.48217 1.16946,0.76841 0.36111,0.22387 0.70682,0.46605 1.04582,0.7222 0.30254,0.23336 0.5896,0.48533 0.88513,0.72731 0.36027,0.30572 0.70345,0.63068 1.05432,0.94706 0.32227,0.29903 0.67778,0.55695 1.03303,0.81441 0.35851,0.26151 0.76038,0.45342 1.13695,0.68629 0.59417,0.3164 1.24014,0.52546 1.88163,0.72338 0.66181,0.24423 1.34684,0.38766 2.04499,0.47362 0.58431,0.0445 1.16783,0.0816 1.75093,0.14179 0.75926,0.0786 1.52268,0.0955 2.28527,0.10861 1.62815,0.0168 3.25658,0.009 4.88475,0.009 0.78168,0.0428 1.54989,-0.0865 2.30817,-0.2627 0.79316,-0.24854 1.57626,-0.52496 2.38237,-0.73105 0.57416,-0.18263 1.14349,-0.37684 1.70088,-0.60435 0.46343,-0.19682 0.90513,-0.43841 1.35541,-0.66419 0.436,-0.20887 0.88858,-0.40127 1.30707,-0.64322 0.41517,-0.19388 0.77415,-0.48216 1.15968,-0.72495 0.43661,-0.28065 0.83004,-0.61758 1.23875,-0.93464 0.1704,-0.18062 0.41301,-0.2689 0.59795,-0.42964 0.19454,-0.1691 0.3715,-0.38634 0.53774,-0.58257 0.48418,-0.49918 0.89571,-1.06744 1.27913,-1.64628 0.35481,-0.50206 0.6943,-1.00301 0.88313,-1.59171 0.017,-0.0745 0.034,-0.14899 0.051,-0.22348 0,0 -2.72902,-0.0626 -2.72902,-0.0626 v 0 c -0.0159,0.0665 -0.0318,0.13307 -0.0478,0.19961 -0.18791,0.55801 -0.52429,1.03385 -0.8515,1.51886 -0.38784,0.57098 -0.81683,1.11448 -1.29944,1.60892 -0.34071,0.3693 -0.72743,0.66883 -1.1328,0.96396 -0.39793,0.32174 -0.80595,0.63231 -1.23667,0.90924 -0.3773,0.25282 -0.75783,0.50011 -1.16603,0.70134 -0.43142,0.21303 -0.85602,0.43904 -1.29374,0.63922 -0.44561,0.23228 -0.90018,0.44276 -1.3622,0.64045 -0.54364,0.22367 -1.10573,0.40343 -1.66786,0.57396 -0.79668,0.22503 -1.57533,0.50819 -2.3759,0.71829 -0.76355,0.15219 -1.53113,0.24431 -2.31158,0.20428 4.77329,0.001 1.55928,0.004 0.45234,-0.004 -0.75719,-0.009 -1.51528,-0.0198 -2.26999,-0.0873 -0.58268,-0.0577 -1.16118,-0.13327 -1.74763,-0.14073 -0.69812,-0.0633 -1.39269,-0.16589 -2.04979,-0.42302 -0.62948,-0.18052 -1.24658,-0.3945 -1.84714,-0.65608 -0.37558,-0.22861 -0.74916,-0.44848 -1.13352,-0.66245 -0.34425,-0.26164 -0.70363,-0.50058 -1.03056,-0.78498 -0.34356,-0.32609 -0.70795,-0.63085 -1.04902,-0.96078 -0.29468,-0.25369 -0.59817,-0.49367 -0.89338,-0.74595 -0.34605,-0.24067 -0.65347,-0.53933 -1.04039,-0.71878 -0.38569,-0.27766 -0.75911,-0.57068 -1.16638,-0.81779 0,0 -2.72361,0.30278 -2.72361,0.30278 z" />
    <circle
       id="path1657"
       style="fill:#000000;stroke:#000004;stroke-width:0.264583"
       cx="107.60591"
       cy="176.83765"
       r="0" />
    <path
       style="fill:#000000;stroke:#000004;stroke-width:0;stroke-miterlimit:4;stroke-dasharray:none;paint-order:stroke fill markers"
       id="path1699"
       d="m 145.44672,200.74411 c -0.43333,-0.40217 -0.80823,-0.86242 -1.16336,-1.3336 -0.26355,-0.39801 -0.48246,-0.82892 -0.68484,-1.26141 -0.13052,-0.3778 -0.2857,-0.74325 -0.46393,-1.10068 -0.24044,-0.42755 -0.4601,-0.86485 -0.6555,-1.31472 -0.16038,-0.42295 -0.27184,-0.86237 -0.4095,-1.29281 -0.19285,-0.4362 -0.33159,-0.88654 -0.40642,-1.35694 -0.0744,-0.63253 -0.16229,-1.26231 -0.21032,-1.89771 -8e-4,-0.53668 -0.1384,-1.04988 -0.27761,-1.56256 -0.10699,-0.41565 -0.13651,-0.84403 -0.15305,-1.27113 -0.0748,-0.46652 -0.11556,-0.93863 -0.19739,-1.40377 -0.11189,-0.50625 -0.16327,-1.02039 -0.18969,-1.5372 0.0121,-0.54097 -0.1736,-1.05383 -0.28495,-1.57648 -0.092,-0.48159 -0.11434,-0.97209 -0.12643,-1.46104 -0.009,-0.49327 -0.006,-0.9866 -0.003,-1.47991 0.001,-0.21546 0.002,-0.43092 0.003,-0.64638 0,0 -2.73122,-5.3e-4 -2.73122,-5.3e-4 v 0 c 2.1e-4,0.21542 5.3e-4,0.43084 7.9e-4,0.64625 0.001,0.49568 -5.3e-4,0.99141 0.006,1.48704 0.0119,0.50548 0.0349,1.01151 0.13094,1.50942 0.10076,0.51145 0.29278,1.00828 0.28625,1.53575 0.0283,0.52731 0.0641,1.05379 0.1836,1.57 0.0782,0.45331 0.12005,0.9129 0.19023,1.36765 0.0184,0.44685 0.0517,0.89453 0.15871,1.33036 0.12756,0.50034 0.29937,0.98852 0.29147,1.5144 0.0555,0.63994 0.14244,1.27619 0.19761,1.9157 0.0668,0.48662 0.20461,0.95398 0.40263,1.40417 0.14913,0.43521 0.25669,0.88455 0.41827,1.31584 0.19231,0.45424 0.39985,0.90058 0.64645,1.32818 0.17048,0.35917 0.35157,0.71094 0.46558,1.09398 0.20283,0.45376 0.44724,0.89341 0.70086,1.31961 0.35819,0.47647 0.73351,0.9407 1.14422,1.3733 0,0 2.73039,-0.21488 2.73039,-0.21488 z" />
    <ellipse
       style="fill:#ffe6d5;stroke:#000004;stroke-width:0;stroke-miterlimit:4;stroke-dasharray:none;paint-order:stroke fill markers"
       id="path1701"
       cx="143.41104"
       cy="217.74391"
       rx="6.0333381"
       ry="9.762146"
       transform="rotate(-10.678462)" />
    <ellipse
       style="fill:#dbdbe3;stroke:#000004;stroke-width:0.513647;stroke-miterlimit:4;stroke-dasharray:none;paint-order:stroke fill markers"
       id="path1705"
       cx="115.91663"
       cy="166.46309"
       rx="1.8840088"
       ry="1.6579278" />
    <ellipse
       style="fill:#dbdbe3;stroke:#000004;stroke-width:0.604776;stroke-miterlimit:4;stroke-dasharray:none;paint-order:stroke fill markers"
       id="path1707"
       cx="122.84017"
       cy="172.82901"
       rx="3.7266788"
       ry="1.1534959" />
  </g>
</svg>
